<?xml version="1.0" encoding="UTF-8"?>
<svg
   xmlns:mapsvg="http://mapsvg.com"
   xmlns:dc="http://purl.org/dc/elements/1.1/"
   xmlns:rdf="http://www.w3.org/1999/02/22-rdf-syntax-ns#"
   xmlns:svg="http://www.w3.org/2000/svg"
   xmlns="http://www.w3.org/2000/svg"
   mapsvg:geoViewBox="95.220250 7.356505 141.009728 -10.946766"
   width="300"
   height="260">
    <g fill="#90953b" transform="translate(0 0) scale(7)">
        <path
            d="m 25,20 -0.52,-0.07 -1.06,-0.59 -0.83,-0.67 0.13,-0.37 0.63,-0.57 0.28,-0.08 0.99,0 0.28,0.16 0.62,1.15 -0.01,0.28 -0.51,0.76 z m -19.22,-12.44 0.39,0.18 0.33,0.57 0.33,0.1 0.67,-0.37 3.28,0.94 1.91,0.33 1.74,-0.17 0.67,-0.23 1.67,-1.47 0.92,-0.42 0.34,0.08 4.56,1.7 1.87,1.17 1.27,1.64 1.3,0.7 0.14,0.36 -0.07,0.34 -0.3,0.41 -1.34,1.14 -1.95,0.99 -0.97,0.33 -0.94,0.08 -1.2,0.57 -1,0.94 0.04,0.75 -1.34,0.79 0.53,0.67 0.12,-0.38 0.22,0.71 -0.36,0.51 -1.07,0.3 -0.96,-0.12 -0.19,-0.34 0.8,-0.64 0.61,-0.26 -0.24,-0.45 0.28,-0.63 -0.35,-0.5 -1.4,-1.47 -2.57,-2.24 -0.72,-0.41 -1.6,-0.62 -1.42,-0.27 -2.13,0.12 -2.43,-3.08 -0.27,-1.87 0.13,-0.43 0.7,-0.05 z"
            title="Bali" id="ID-BA" />
    </g>
</svg>
