<?xml version="1.0" encoding="UTF-8"?>
<svg
   xmlns:mapsvg="http://mapsvg.com"
   xmlns:dc="http://purl.org/dc/elements/1.1/"
   xmlns:rdf="http://www.w3.org/1999/02/22-rdf-syntax-ns#"
   xmlns:svg="http://www.w3.org/2000/svg"
   xmlns="http://www.w3.org/2000/svg"
   mapsvg:geoViewBox="95.220250 7.356505 141.009728 -10.946766"
   width="450"
   height="280">
    <g fill="#90953b" transform="translate(-320 -320) scale(2)">
        <path 
            d="m 201.16571,231.92789 -0.6,0.25 -0.04,1.12 0.61,0.33 -0.02,0.67 0.39,0.08 0.16,0.73 0.44,0.76 0,0 -0.04,0.15 0,0 -0.18,0.61 -2.91,0.02 -0.3,-0.36 -1.02,-0.27 -0.1,0.06 0.3,0.16 0.01,0.25 -0.54,0.04 -0.21,-0.65 -0.33,-0.1 -0.67,0.64 0.44,1.4 -0.25,0.33 -0.62,0.09 -0.11,0.96 0.56,1.24 -0.09,1.73 0.11,0.34 0.16,0 0.44,0.48 0.21,-0.03 0.55,0.66 -0.37,0.25 -0.03,0.27 -0.94,0.44 -0.08,0.71 -0.65,0.69 0.1,0.44 -0.18,0.18 0.16,0.76 0,0 -0.49,0.19 -1.01,0.05 -0.09,-0.28 -0.66,-0.03 -0.06,-0.23 -0.37,-0.1 0.03,-0.43 -0.91,-0.43 -0.55,-0.02 -0.54,-0.39 -0.46,-0.1 -0.7,-0.81 -0.54,-0.23 -1.44,-0.12 -2.94,0.61 -1.5,-0.19 -2.12,0.33 -0.4,0.29 -0.7,-0.19 -0.34,0.12 -0.61,-0.55 -0.31,-0.05 -0.15,0.31 -0.19,0.01 0.07,-0.26 -0.57,-0.38 -1.15,-0.24 -0.32,0.07 -0.2,0.43 -0.33,0.28 -0.41,-0.1 -0.15,-1 -0.21,-0.28 -0.16,0 -0.07,-0.26 0.98,0.07 0.33,-0.45 0.8,-0.58 -0.12,-0.43 0.83,-0.4 0.57,1.27 -0.18,0.05 -0.07,0.23 0.5,0.33 0.32,0.53 0.05,0.44 0.31,0.25 0.21,-0.04 0.52,-0.63 0.14,-0.99 1.05,-0.86 0.07,-0.4 0.36,-0.14 0.32,-0.42 0.22,-0.71 -0.09,-0.8 0.54,-0.94 0.4,-0.31 0.13,0.48 -0.18,0.24 0.41,0.32 0.34,0.06 1.02,-0.21 0.7,-0.96 0.17,-0.58 0.08,-3.08 0.61,-2.25 0.39,-0.24 -0.03,-0.61 0.75,-0.47 0.27,-0.4 0.78,-0.64 0.18,-0.87 -0.27,0.05 0.87,-0.84 0.74,-0.11 0.56,0.65 -0.02,1.29 1.02,0.55 0.26,0.03 0.76,-0.35 0.26,-0.29 0.12,-0.49 0.23,-0.17 0.87,0.29 0.12,0.2 0.29,0.09 0.4,-0.41 0.27,0.26 0.32,0.03 -0.09,0.15 0.23,0.52 0.49,0.26 0.38,-0.07 0.73,0.23 0.73,-0.53 0.49,0.31 0.93,-0.17 0.21,-0.16 0.43,0.25 0.49,-0.15 0.47,0.46 -0.09,0.12 z"
            title="Banten" id="ID-BT" />
        <path 
            d="m 207.66571,229.26789 0.77,0.8 0.42,0.08 2.2,-0.5 0.91,0.26 0.88,0.94 1.22,2.06 1.61,0.62 1.06,0.13 0.86,0.94 0.42,-0.34 0.22,0.14 0.49,-0.03 1.31,-0.79 0.62,0.02 0.12,0.42 0.61,-0.33 0.15,0.27 -0.28,-0.01 0.08,0.5 1.08,0.38 1.42,0.81 1.61,0.49 1,-0.62 0.42,-0.47 -0.07,-0.38 -0.35,-0.34 0.37,0.06 0.27,0.28 1.34,-0.03 0.63,0.45 0.08,-0.49 0.14,-0.07 0.29,0.4 0.16,0.54 -0.12,0.17 0.28,0.83 1.34,1.5 1.36,0.81 0.15,1.2 -0.09,0.57 0.37,1.85 0.65,1.15 0.59,0.15 0.28,-0.34 0.48,0.26 0.08,0.57 1.17,0.28 0.93,-0.46 0.05,-0.37 -0.31,-0.11 0.23,-0.27 0.47,-0.03 0,0 -0.07,1.47 -0.56,0.85 -0.25,0.11 -0.43,0.58 0.16,0.5 -0.05,0.65 0.65,0.37 -0.04,0.36 -0.27,0.23 0.1,0.31 -0.17,0.37 0.05,0.37 -0.28,0.26 -0.66,0.05 -0.48,0.58 -0.58,0.06 -0.34,-0.31 -0.34,0.01 -0.98,0.48 -0.02,0.57 0.28,0.27 0,0.51 -0.47,0.81 0.09,0.82 0.18,-0.02 0.21,0.24 1.17,-0.09 0.51,0.48 0.11,0.48 0.55,0.59 -0.13,0.46 0.1,0.44 0.3,0.37 0.34,0.94 -0.08,0.52 -0.29,0.44 0.69,0.73 0.49,0.25 0,0 -0.68,0.43 -0.52,-0.3 -0.74,-0.06 -0.47,0.31 -0.04,0.14 0.33,0.35 -0.14,0.13 -0.36,-0.22 -0.13,-0.51 -1.05,-0.04 -0.92,0.21 -0.4,0.39 -0.08,1.12 -0.45,0.32 -0.62,0.24 -1.69,0 -4.47,-0.77 -1.54,-0.52 -1.46,-0.18 -1.04,0.07 -0.18,-0.1 -0.1,-0.47 -0.45,-0.28 -0.49,-0.21 -1.5,-0.16 -0.33,-0.73 -1.22,-0.87 -2.18,-0.79 -0.36,-0.31 -1.31,-0.25 -2.57,-0.19 -2.01,-0.53 -9.47,-0.66 -0.87,-0.25 -0.49,-0.47 -0.86,-0.28 -0.55,0.19 -0.02,-0.35 -0.47,-1.06 0.01,-0.8 0.57,-0.91 0.88,-0.19 -0.24,-0.52 0.1,-0.37 0.49,-0.42 0.45,-0.17 0.63,-0.85 -0.07,-0.91 -0.51,-0.51 -1.23,-0.15 -0.47,0.17 -0.31,0.32 0,0 -0.16,-0.76 0.18,-0.18 -0.1,-0.44 0.65,-0.69 0.08,-0.71 0.94,-0.44 0.03,-0.27 0.37,-0.25 -0.55,-0.66 -0.21,0.03 -0.44,-0.48 -0.16,0 -0.11,-0.34 0.09,-1.73 -0.56,-1.24 0.11,-0.96 0.62,-0.09 0.25,-0.33 -0.44,-1.4 0.67,-0.64 0.33,0.1 0.21,0.65 0.54,-0.04 -0.01,-0.25 -0.3,-0.16 0.1,-0.06 1.02,0.27 0.3,0.36 2.91,-0.02 0.18,-0.61 0,0 0.04,-0.15 0,0 0.52,-0.05 -0.24,0.68 0.12,0.15 0.9,-0.25 0.85,0.49 0.18,-0.05 0.21,-0.95 -0.21,-0.37 -0.05,-0.56 0.63,-0.17 0.41,-0.86 0.06,-1.99 0,0 0.37,-0.06 0.18,-0.25 -0.25,-0.41 0.42,-0.28 -0.16,-0.22 -0.17,0.09 -0.05,-0.34 0.31,-0.26 0.11,-0.66 -0.17,-0.23 -0.29,0.07 0,-0.09 0.6,-0.41 z"
            title="Jawa Barat" id="ID-JB" />
        <path
            d="m 315.03571,272.78789 0.65,0.13 0.86,-0.05 0.48,0.3 -0.17,0.37 -1.01,0.24 -0.98,0.05 -0.45,-0.19 0.03,-0.52 0.35,-0.14 0.08,-0.27 0.16,0.08 z m 42.62,-23.22 0.54,0.18 -0.07,0.26 0.23,0.2 0.52,0.06 0.1,0.21 0.26,0 0.17,-0.14 0,-0.37 0.41,-0.18 -0.01,-0.23 0.27,-0.13 -0.27,1.55 -0.3,0.23 -0.79,0.06 -1.3,-0.64 -0.17,-0.33 0.28,-0.44 -0.16,-0.45 0.14,-0.24 0.15,0.4 z m -23.8,1.19 -0.28,0.06 -0.7,-0.19 -0.79,-0.55 -0.32,-0.62 0.23,-0.57 0.85,-0.26 0.49,0.34 0.74,1.51 -0.22,0.28 z m 21.69,-3.62 0.57,0.33 0.16,0.37 -0.55,-0.2 -0.58,0.14 -0.48,-0.18 -0.06,-0.34 -0.28,-0.03 -0.11,-0.27 0.26,-0.33 1.07,0.51 z m -28.43,-1.48 1.76,0.91 0.32,0.77 -0.57,-0.02 -0.36,0.32 -0.53,0.19 -1.23,0.08 -0.34,0.28 -0.45,-0.21 -0.21,0.13 0.6,0.28 0.42,0.47 1.44,0.08 0.23,0.66 -1.6,-0.19 -0.64,-0.47 0.09,-0.32 -0.43,-0.19 -0.57,0.45 -0.13,0.28 -0.04,0.17 0.25,0.11 0.11,0.32 -0.11,0.23 -3.59,-0.43 -0.6,0.38 -0.21,-0.09 -0.58,0.11 -0.42,0.47 -0.42,1.21 -0.68,0.45 -0.21,-0.17 0.13,-0.09 -0.08,-0.17 -0.76,-0.15 -3.13,-0.11 -0.3,0.17 -1.27,0.04 -0.3,-0.49 -0.34,0.06 -0.02,-0.23 0.21,-0.26 -0.34,-0.3 -0.38,0.45 0.17,0.38 0.38,0.34 -0.93,0.09 -3.55,-0.87 -0.49,-0.28 -1.49,-0.09 -0.4,0.25 -0.66,0.02 -0.45,-0.36 0.23,-0.94 -0.28,0 -0.26,-0.68 0.21,-0.47 0.6,0.15 1.23,-1.02 0.6,-0.89 -0.04,-0.34 1.06,-0.38 1.59,-0.02 0.68,-0.15 1.64,0.21 5.59,-0.06 1.19,0.17 3.46,-0.25 1.15,0.06 2.57,-0.38 1.48,0.33 z m 22.26,-0.93 2.21,0.16 0.96,0.33 1.49,0.84 0.24,0.44 -0.44,0.6 -0.43,-0.26 -0.45,0.03 -0.43,-0.43 -1.02,0.16 -0.33,-0.38 -0.41,0.06 -0.1,0.14 -0.5,-0.06 0.07,0.23 0.71,0.33 0.38,0.55 -1.16,0.13 -0.27,-0.38 -0.18,0.01 -0.23,0.13 0.03,0.38 -0.26,0.08 -0.67,-0.64 0.47,-0.54 -0.31,0.1 -0.84,-0.08 -0.14,-0.31 0.18,-0.62 0.5,-0.09 0.24,-0.33 0.01,-0.18 -0.43,-0.23 0.09,-0.1 0.33,-0.16 0.69,0.09 z m -61.39,-1.01 0.5,0.05 0.83,0.41 0.63,0.02 0.93,-0.23 0.7,-0.4 0.44,0.05 1.15,1.9 0.39,0.29 0.91,0.12 0.89,-0.05 1.03,-0.43 0.47,0.12 1.3,-0.25 1.25,0.17 0.25,-0.14 0.53,0.15 0.59,0.45 0.66,0.13 0.37,-0.46 -0.23,-0.29 0.28,-0.18 -0.05,-0.34 0.4,0.34 0.12,-0.07 0.02,0.31 0.28,0.39 0.29,-0.01 0.21,0.28 -0.13,0.27 -0.22,-0.09 -0.02,0.27 0.32,1.01 0.61,0.45 0.09,0.55 -0.38,0.44 -0.15,0.79 0.78,0.71 0.04,0.38 -0.29,0.18 0,0.29 0.27,0.18 0.63,0.04 0.17,-0.39 0.81,-0.09 0.36,0.27 0.39,0.71 0.7,0.56 -0.02,0.5 -0.22,0.26 0.2,0.1 -0.16,1.17 0.06,1.27 -0.37,0.06 0.34,0.6 0.47,0.15 0.14,0.22 -0.14,0.86 0.2,0.05 0.25,0.49 0.79,0.28 0.24,-0.18 0.37,0.41 0.48,0.23 0.4,-0.17 0.45,0.11 0.74,0.84 1.43,0.73 0.71,-0.14 0.67,0.11 0.59,0.7 0.39,-0.22 0.26,0.07 0.51,-0.2 0.38,-0.39 0.59,-0.06 1.65,-0.66 0.83,0.23 0.5,-0.06 1.55,0.44 0.75,-0.42 0.66,0.47 0.23,-0.02 0.5,-0.15 0.43,-0.52 0.58,-0.27 1.26,0.31 1.07,-1.09 0.86,-0.43 0.56,0.39 0.59,1.23 0.16,0.07 1.6,0.12 0.65,-0.31 0.85,0.8 1.55,0.26 0.99,0.6 0.45,0.63 0,0.92 -0.78,0.69 0.2,1.3 -0.01,1.12 -0.42,0.79 -0.09,0.77 -0.31,0.66 0.1,0.74 -0.37,0.79 -0.42,2.22 -0.05,0.58 0.42,0.84 -0.22,0.66 0.23,0.21 0.17,-0.09 0.18,-0.86 -0.09,-0.55 0.12,-0.07 0.2,0.22 -0.02,0.5 0.2,0.52 -0.12,0.57 0.37,0.95 0.48,0.58 0.48,-0.38 0.62,0.6 0.98,0.16 0.59,0.9 -0.25,0.78 -0.34,0.27 -0.7,0.16 -1.63,-0.55 -1.07,0.03 -0.48,-0.12 -0.06,-0.23 0.45,-0.22 0.12,-0.33 -0.16,-0.57 -0.61,-0.62 -1.22,-0.55 -0.54,0.05 -0.15,0.18 0.04,0.47 -0.16,0.1 -1.94,-0.51 -1.06,0.3 -0.26,-0.18 0,-0.46 -0.29,-0.12 -0.27,0.16 -0.03,0.21 -0.61,0.05 -0.23,-0.25 0.37,-0.1 0.02,-0.26 -0.28,-0.33 -0.29,0 -0.32,0.34 -0.58,-0.33 -0.84,-0.14 0.02,-0.41 -0.3,0.34 -0.16,-0.03 0.02,-0.85 -0.2,-0.11 -0.66,0.23 -0.16,0.27 -0.23,0.09 -0.22,-0.11 -0.14,0.13 -0.09,-0.06 0.17,-0.43 -0.13,-0.25 -0.37,0.28 -0.2,-0.17 -0.17,0.12 -0.79,-0.92 -0.43,-0.16 -0.4,0.06 0.06,-0.12 -0.17,-0.12 -0.27,0.15 -0.52,-0.07 -0.78,-0.37 -0.02,-0.41 -0.37,-0.16 -0.6,0.06 -0.6,0.36 -0.65,-1.07 -0.29,-0.25 -0.8,-0.53 -0.93,-0.23 -0.87,-0.06 -2.68,0.45 -1.02,0.6 -0.34,0.61 -0.52,0.42 -3.65,0.5 0.08,0.5 -0.39,0.13 -1.21,-0.63 -1.07,-0.33 -2.01,-0.17 -0.46,-0.28 -0.46,0 -0.83,-0.61 -0.76,-0.22 -0.59,0.31 -0.61,-0.09 -0.57,-0.31 -2.53,-0.09 -0.46,-0.09 -0.28,-0.31 -0.47,-0.2 -0.63,-0.1 -0.1,0.12 0.11,0.22 -0.78,0 -0.71,-0.59 -0.22,-0.02 -0.12,0.25 -0.65,-0.17 -0.05,-0.16 -0.41,0.1 0.09,1.06 -0.31,0.18 -0.33,-0.04 0.11,-0.33 -0.22,-0.39 -0.34,0.01 -0.08,0.16 0.2,0.35 -0.38,0.01 -0.1,0.21 0.39,0.33 0.07,0.24 -0.5,0.13 -0.31,-0.02 -0.16,-0.28 -0.75,-0.08 0.14,-0.2 -0.07,-0.33 -0.22,0 -0.04,0.13 -0.33,-0.09 -0.15,0.18 -0.28,-0.07 -0.02,-0.37 -0.31,-0.07 -0.24,0.46 -1.29,-0.31 -0.17,-0.78 -0.33,-0.2 -0.66,0.37 -2.5,-0.53 -0.52,0.35 -1.24,0.11 -0.83,-0.58 -0.04,-0.34 -0.28,-0.02 -0.08,0.45 -1,0.11 -1.96,-0.65 0,0 -0.12,-0.82 0.25,-0.91 0.7,-0.92 1.26,0.33 0.84,-0.61 0.55,0.31 0.44,-0.7 -0.07,-1.06 0.28,-0.19 -0.04,-0.3 0.18,-0.18 0.64,-0.16 0.07,0.28 0.42,-0.06 0.27,0.33 0.3,-0.09 0.62,-0.68 0.18,-0.7 0.31,-0.24 -0.58,-1.31 0.1,-0.56 -0.96,0.04 -0.83,-0.68 0.1,-0.38 -0.07,-0.77 0.18,-0.62 -0.64,-0.42 -0.19,-0.8 0.03,-0.64 -0.27,-0.33 -0.3,-1.02 0.46,-0.97 -0.06,-0.49 0.15,-0.42 -0.18,-0.12 0.19,-0.71 0.09,-0.13 0.33,0.1 0.4,-0.13 0.09,-0.18 0.21,0.03 0.46,0.56 1.16,0.42 0.74,0.5 1.14,0.27 0.25,0.3 0.4,0.13 0.09,-0.27 -0.3,-0.15 0.16,-0.55 -0.46,0 0.36,-0.89 0.21,-0.21 0.15,0.1 0.22,-0.18 0.1,0.09 0.95,-0.5 0.68,-0.7 0.65,-1.28 -0.06,-0.5 0.21,-0.33 -0.21,-0.9 0.19,-0.45 -0.98,-0.67 0.3,-0.52 0.4,-0.16 0.24,-1.35 0.67,-0.09 0.15,-0.21 -0.04,-0.61 0.16,-0.18 0.18,0.15 0.2,-0.34 0,0 0.39,0.27 0.38,0.03 z m 16.67,-17.98 0.39,0.1 -0.01,0.3 0.27,0.53 -0.18,0.82 -0.76,0.39 -0.63,-0.05 -0.17,-0.14 -0.36,0.17 -0.47,0 -0.29,-0.52 0.27,-0.89 0.32,-0.05 0.07,-0.37 0.35,-0.22 0.29,-0.12 0.39,0.09 0.22,-0.34 0.3,0.3 z"
            title="Jawa Timur" id="ID-JI" />
        <path
            d="m 175.98571,239.51789 -0.26,0.49 0.16,0.73 -0.3,0.61 -0.64,0.23 -0.42,0.57 -0.21,-0.28 0.38,-0.45 0.03,-0.4 -0.33,-0.26 0.02,-0.42 -0.28,0.04 -0.54,0.49 -0.05,0.31 -0.26,-0.16 0.28,-0.59 0.99,-0.75 0.52,0.12 0,-0.26 0.49,0.02 0.26,-0.16 0.16,0.12 z m 25.57,-7.41 1.8,0.34 0.73,-0.41 1.4,-0.09 0,0 -0.06,1.98 -0.41,0.86 -0.64,0.17 0.06,0.56 0.21,0.37 -0.21,0.95 -0.18,0.06 -0.85,-0.49 -0.9,0.25 -0.11,-0.16 0.24,-0.68 -0.53,0.06 0,0 0,0 0,0 -0.44,-0.76 -0.16,-0.73 -0.39,-0.08 0.02,-0.66 -0.61,-0.33 0.03,-1.12 0.6,-0.26 0,0 0.4,0.17 z"
            title="Jakarta Raya" id="ID-JK" />
        <path
            d="m 287.20571,243.41789 -0.2,0.34 -0.18,-0.15 -0.16,0.18 0.04,0.61 -0.15,0.21 -0.66,0.09 -0.24,1.35 -0.4,0.16 -0.3,0.52 0.98,0.67 -0.19,0.44 0.21,0.91 -0.21,0.32 0.06,0.51 -0.65,1.27 -0.69,0.71 -0.95,0.5 -0.1,-0.09 -0.22,0.18 -0.15,-0.1 -0.21,0.2 -0.35,0.89 0.46,0 -0.17,0.55 0.3,0.15 -0.09,0.27 -0.4,-0.13 -0.25,-0.3 -1.14,-0.27 -0.74,-0.5 -1.16,-0.42 -0.46,-0.56 -0.21,-0.03 -0.09,0.18 -0.4,0.13 -0.32,-0.1 -0.09,0.13 -0.19,0.71 0.17,0.12 -0.15,0.42 0.06,0.49 -0.46,0.96 0.3,1.03 0.27,0.32 -0.03,0.64 0.19,0.8 0.64,0.42 -0.18,0.62 0.07,0.78 -0.1,0.37 0.83,0.69 0.96,-0.05 -0.1,0.57 0.58,1.3 -0.31,0.24 -0.18,0.7 -0.62,0.69 -0.3,0.08 -0.27,-0.32 -0.41,0.06 -0.08,-0.29 -0.63,0.17 -0.18,0.18 0.04,0.29 -0.28,0.2 0.08,1.05 -0.45,0.7 -0.55,-0.31 -0.84,0.61 -1.27,-0.33 -0.69,0.92 -0.25,0.91 0.12,0.82 0,0 -1.19,-0.29 0,0 0.04,-0.5 -0.12,-0.05 -0.18,0.18 -0.08,-0.11 0.24,-0.61 -0.22,-0.01 -0.32,0.38 -0.23,-0.18 0.05,-0.75 -0.57,-1.61 0.23,-0.55 -0.02,-1.1 0.29,-0.84 0.05,-0.89 -0.29,-0.17 -0.24,0.27 -0.37,-0.46 -0.32,-0.13 -0.17,0.22 -0.41,0.05 -0.19,-0.33 -0.24,0.23 -0.14,-0.14 -1.1,0.23 -0.21,-0.34 -0.23,-0.09 -0.36,0.23 -0.43,-0.4 -0.32,-0.06 -0.81,-3.89 -2.39,1.88 -0.57,0.77 -0.26,-0.14 0.03,-0.59 -0.2,-0.17 -0.29,0.12 -1.26,-0.13 -0.61,0.16 -0.18,0.43 0.32,0.28 -0.12,0.88 -0.34,0.51 -0.26,0.1 -0.2,0.42 -0.4,0.24 -0.31,1.28 -0.58,-0.03 0,0 -1.69,-0.62 -3.62,-0.99 -3.34,-0.53 -0.46,-0.18 -1.19,0.26 -0.46,-0.34 0.17,-0.5 -1.87,-0.42 -3.08,-0.23 -0.77,0.12 -0.59,0.35 -0.16,0.3 -0.09,0.38 0.19,0.24 0.28,-0.09 0.12,0.16 -0.19,0.24 -3.71,-0.8 -0.5,0.09 -0.17,-0.3 0.18,-0.27 -0.25,-0.08 0.3,-0.31 0.46,-0.07 0.18,-0.24 0.4,0 0,-0.15 -0.22,-0.09 -0.83,0.3 0,0 -0.49,-0.25 -0.69,-0.73 0.29,-0.44 0.08,-0.52 -0.34,-0.94 -0.3,-0.37 -0.1,-0.44 0.13,-0.46 -0.55,-0.59 -0.11,-0.48 -0.51,-0.48 -1.17,0.09 -0.21,-0.24 -0.18,0.02 -0.09,-0.82 0.47,-0.81 0,-0.51 -0.28,-0.27 0.02,-0.57 0.98,-0.48 0.34,-0.01 0.34,0.31 0.58,-0.06 0.48,-0.58 0.66,-0.05 0.28,-0.26 -0.05,-0.37 0.17,-0.37 -0.1,-0.31 0.27,-0.23 0.04,-0.36 -0.65,-0.37 0.05,-0.65 -0.16,-0.5 0.43,-0.58 0.25,-0.11 0.56,-0.85 0.07,-1.47 0,0 0.1,0.24 -0.1,0.26 0.29,0.05 0.25,0.45 1.63,0.47 0.24,-0.4 0.35,-0.02 0.69,-0.47 0.3,0.07 0.34,-0.39 0.14,0.89 0.66,0.62 0.87,0 0.46,0.28 1.22,0.18 0.76,-0.01 0.62,-0.2 0.42,0.08 0.99,-0.26 1.03,-0.57 0.69,-0.65 0.96,1.02 1.48,0.17 3.75,1.21 0.88,-0.09 0.64,0.17 0.76,-0.06 2.33,-0.77 0.39,-0.27 0.09,-0.25 0.76,0.24 0.5,0.82 0.87,0.32 0.33,0.27 1.01,0.31 1.13,-0.25 0.12,0.23 0.61,-0.23 -0.01,-0.43 0.47,-0.68 0.23,-0.74 0.59,-0.48 0.38,-0.77 -0.55,-0.04 -0.15,-0.23 0.4,0.07 -0.25,-0.46 0.36,-0.08 0.26,0.16 0.41,-0.3 0.63,-0.84 -0.07,-0.82 0.24,-0.08 0.09,-0.78 -0.11,-0.17 0.55,-0.62 -0.29,-0.32 0.28,-0.11 0.7,-0.85 1.07,-0.37 0.49,0 0.35,-0.28 1.24,-0.13 0.86,0.21 0.47,-0.16 1.09,0.35 1.03,3.09 0.65,0.86 1.03,0.23 0.7,0.37 2.31,0.23 1.4,-0.61 0.18,-0.49 0.49,-0.27 0.29,0.21 0.38,-0.09 0.7,0.29 z"
            title="Jawa Tengah" id="ID-JT" />
        <path
            d="m 272.32571,268.50789 -2.04,-0.09 -5.85,-2.13 -0.41,-0.33 -0.25,-0.48 -1.97,-0.62 -2.48,-1.28 -1.29,-0.48 0,0 0.58,0.03 0.31,-1.28 0.4,-0.24 0.2,-0.42 0.26,-0.1 0.34,-0.51 0.12,-0.88 -0.32,-0.28 0.18,-0.43 0.61,-0.16 1.26,0.13 0.29,-0.12 0.2,0.17 -0.03,0.59 0.26,0.14 0.57,-0.77 2.39,-1.88 0.81,3.89 0.32,0.06 0.43,0.4 0.36,-0.23 0.23,0.09 0.21,0.34 1.1,-0.23 0.14,0.14 0.24,-0.23 0.19,0.33 0.41,-0.05 0.17,-0.22 0.32,0.13 0.37,0.46 0.24,-0.27 0.29,0.17 -0.05,0.89 -0.29,0.84 0.02,1.1 -0.23,0.55 0.57,1.61 -0.05,0.75 0.23,0.18 0.32,-0.38 0.22,0.01 -0.24,0.61 0.08,0.11 0.18,-0.18 0.12,0.05 z"
            title="Yogyakarta" id="ID-YO" />
    </g>
</svg>
