<?xml version="1.0" encoding="UTF-8"?>

<svg
   xmlns:mapsvg="http://mapsvg.com"
   xmlns:dc="http://purl.org/dc/elements/1.1/"
   xmlns:rdf="http://www.w3.org/1999/02/22-rdf-syntax-ns#"
   xmlns:svg="http://www.w3.org/2000/svg"
   xmlns="http://www.w3.org/2000/svg"
   mapsvg:geoViewBox="95.220250 7.356505 141.009728 -10.946766"
   width="320"
   height="270">
    <!-- <g fill="#90953b" transform="translate(15 -20) scale(1.3)"> -->

    <g fill="#90953b" transform="translate(-270 -40) scale(1.35)">
        <path
            d="m 238.00571,155.77789 -0.39,-0.07 -0.58,-1.45 0.15,-0.3 1.59,-0.47 0.62,0.14 0.55,0.61 0.02,0.26 -0.32,0.63 -1.64,0.65 z m 11.81,-11.54 0.54,0.06 0.42,-0.33 0.63,0.04 0.46,0.47 0.4,0.12 0.34,-0.14 0.33,-0.4 0.47,0.24 0.31,0.53 0.19,0.86 -0.07,0.53 0.23,0.25 0,0.25 -5.01,2.89 -1.31,-0.43 -0.44,-0.45 0.56,-0.61 0.18,-0.51 0.42,-2.2 -0.04,-0.43 0.75,-1.05 0.64,0.31 z m 1.94,-52.760005 -0.5,1.38 -0.38,0.22 -0.3,0.75 -0.6,0.07 -0.05,0.48 0.17,0.65 0.45,0.32 0.4,0.62 1.2,0.3 0.15,0.35 -0.42,2.14 0.3,0.65 1.82,1.810005 0.35,0.15 0.83,1.29 1.27,0.05 0.5,0.2 0.25,0.3 0.17,1.39 1.49,0.74 0.35,0.87 0.43,0.35 0.6,-0.07 0.73,0.15 0.45,0.67 0.15,0.52 0.48,0.4 0.42,0.72 0.32,0.97 0.98,0 0.97,0.25 0.9,1.37 0.35,0.27 1.2,0.42 0.73,0.07 0.55,-0.12 0.4,-0.67 0.45,0.45 0.45,-0.02 0.38,-0.32 0.77,-0.25 0.95,-0.55 0.72,-0.12 0.63,-0.55 0.27,-0.6 3.85,-0.5 1.95,-0.57 0.32,0.3 1.75,0.57 0.5,0.32 0.5,-0.02 0.7,-0.3 0.77,0.12 0.7,1.17 0.23,-0.02 0.1,-0.52 0.52,-0.07 1.13,-0.82 0.27,-0.02 1,0.52 0.58,-0.17 1.7,0.35 0.32,-0.77 1.35,-1.39 3.22,-0.22 -0.03,-0.65 0.25,-0.6 0.15,-1.49 0.85,-0.84 0.05,-0.65 -0.42,-0.65 0.5,-0.55 0.42,0 1.27,-0.79 1.57,-0.35 0.55,-0.27 0.08,-0.3 1.02,-0.370005 2.9,0.370005 1.65,-0.12 0.55,0.4 0.35,0.02 0.57,-0.3 0.35,-0.470005 0.2,-0.05 0.82,0.220005 0.92,-0.07001 0.63,0.12001 0.52,0.3 0.13,0.4 -0.17,0.05 -0.5,0.99 -0.5,0.17 -0.3,0.3 -0.15,0.45 0.75,0.07 1.35,-0.45 0.37,0.05 0.38,0.67 0.75,0.22 1.6,-0.15 0.77,0.2 0.72,0.5 0.17,0.35 0.6,0.37 0.3,0.37 0.4,0.02 0.33,-0.3 0.57,-0.22 0.82,-0.05 0.67,0.3 0.75,1.34 0.32,0.1 0.3,0 0.35,-0.22 0.38,-0.45 1.9,-0.77 0.28,-0.84 -0.13,-0.2 0.07,-0.17 1.92,-0.79 0.4,-0.45 3.05,-0.32 0.97,0.65 0.2,0.28 0,0 -0.03,0.01 0,0 -0.82,0.42 -0.12,1.72 0.21,0.18 -0.33,0.42 0,0.69 -0.21,0.69 -0.3,0.3 -0.52,-0.09 -0.55,0.36 -0.3,-0.15 -0.7,0.06 -0.52,0.42 -0.09,0.66 -0.3,0.24 -0.67,0.15 -0.09,0.36 0.33,0.3 0.12,0.42 -0.18,0.51 -0.52,0.51 -0.09,0.27 0.27,0.69 0.58,0.48 0,0.3 -0.52,0.63 0.06,0.81 -0.18,0.36 -0.67,0.27 -0.18,0.54 0.12,0.24 0,0 -0.51,0.29 -0.23,0.71 -0.36,0.24 -0.19,0.44 -0.37,0.16 -0.19,0.42 -0.4,0 -0.68,0.42 -0.27,1.09 -1.31,0.76 -0.16,0.31 -0.96,0.82 -0.05,0.23 -0.53,0.41 -0.92,0.56 -1.38,-0.26 -0.74,0.2 -0.63,0.38 -0.03,0.19 1.03,1.01 1.55,0.82 -0.15,1.34 0.19,0.35 0.36,0.25 -0.26,0.38 -0.18,0.76 0.37,0.05 0.07,0.22 -0.36,0.79 -0.44,0.26 0.34,0.2 -0.08,0.33 -0.36,0.07 -0.27,0.56999 -0.56,0.52001 -0.85,0.18 -0.42,0.6 -0.53,0.37 -0.19,0.6 -0.29,0.21999 0.78,0.71001 0.19,0.78 -0.66,0.8 -0.16,0.49 -0.12,0.08 -0.15,-0.14 -0.29,-0.5 -0.49,-0.01 -0.14,-0.35 -0.38,0.12 -0.27,0.52 -0.37,0 -0.33,0.23 -1.33,-0.14 -0.33,0.31 -1.44,0.42 -0.67,0.63 -0.7,0.12 -0.58,-0.18 -0.58,0.15 -0.08,0.86 -0.74,0.03 -0.25,0.42 -0.89,0.03 -0.6,0.35 0,0.2 -0.92,0.08 -0.1,0.19 -0.85,-0.16 -0.08,0.46 -0.23,0.23 -0.37,-0.26 -0.01,-0.61 -0.37,-0.14 -0.49,0.44 -0.85,0.31 -0.41,-0.18 -0.36,0.44 -0.41,-0.48 -0.64,-1.21 -0.34,-0.29 -0.55,-0.03 -0.82,1.14 0.23,0.72 -0.1,0.07 -0.38,0 -0.77,-0.31 -1.08,-0.11 -0.19,0.18 0.31,1.12 -0.07,0.31 -1.21,0.34 -0.37,-0.15 -0.49,-0.53 -0.14,0.86 0.29,0.76 -0.67,-0.15 -0.15,0.07 -0.16,0.57 -0.46,0.26 -1.01,-0.07 -0.77,0.27 -0.22,0.3 -0.93,0.56 -0.59,0.04 -0.3,0.37 0.18,0.69 -0.47,0.48 -0.48,0.15 -0.27,0.54 0.31,0.64 -0.26,0.48 0.33,0.29 -0.12,0.3 -1.19,0.2 -0.31,0.26 -1.11,0.01 -0.22,0.18001 -0.12,0.53999 -0.3,0 -0.36,0.75 -0.63,0.33001 -0.16,0.6 -0.42,0.47999 -0.21,0.04 0.04,0.29 -1.11,-0.22 -0.12,0.53 -0.38,-0.14 0.14,0.79 -0.08,0.65 -0.31,-0.13999 -0.04,-0.49001 -0.27,-0.16 -0.82,0.49001 0.26,0.38999 0.07,0.45 -0.81,0.22 -0.37,-0.42 -0.48,0.15 -0.3,0.30001 -0.49,-0.39 -0.44,0.54 -0.88,0.22 -0.29,0.42 -0.55,0.37999 0.04,0.78 0.44,0.11001 0.18,0.44 0.26,0.19 0.42,-0.1 0.18,-0.14 0.11,-0.45 0.42,-0.18 0.29,0.16 0.22,0.52 0.12,1.2 -0.15,0.38 -0.37,0.34 -0.11,0.44 -0.03,0.64 0.33,0.41 -0.04,0.37 -0.34,0.41999 0.15,0.42 0.34,0.23 0.52,-0.14 0.89,0.12 0.04,0.15 -0.15,0.40001 0.07,0.41999 -0.7,0.59 0.68,1.29 -0.04,0.23 -0.19,0.23 0.03,0.29 -0.62,0.72 0.69,1.13 0.52,1.82 0.08,1.31 0.53,2.06 -0.33,0.82 0.45,0.27 0.34,-0.01 0.15,0.45 -0.52,0.91 -0.9,0.45 -1.45,0.37 -0.15,0.57 -0.62,0.52 -1.18,0.2 -0.78,0.48 -1.21,0.41 -0.38,0.29 -0.34,0.94 0,0 -1.33,0.83 -0.34,-0.14 0.08,-0.3 -0.19,-0.69 0.08,-0.84 -0.37,-0.87 -0.47,-0.57 -0.64,-0.07 -1.08,0.33 -1.31,0.63 -1.95,1.6 -0.2,-0.27 -0.47,-0.1 -0.17,-0.94 -0.34,-0.57 0.54,-1.07 0.1,-0.6 -0.34,-0.47 -0.41,-0.19 -0.18,-1.66 -1.26,-0.37 0.67,-0.8 0.25,-1.26 -1.04,-3.8 -0.73,-0.87 0.04,-1.11 0.49,-1.46 0.01,-0.68 -0.7,-1.8 -0.69,-0.5 -1.67,-0.71 -0.78,-0.75 0.19,-0.92 1.34,-0.79 0.69,-1.2 0.65,-3.33 0.01,-1.52 -0.22,-0.74 -0.21,-0.38 -0.66,-0.52 -0.8,-0.18 -0.87,-1.1 0.52,-1.4 -1.92,-0.63 -1.17,-1.61 -0.67,-0.41 -0.73,0.49 -1.13,-0.75 -0.41,-0.76 -0.3,-0.27 -1.98,-0.55 -0.29,-0.27 -0.48,0.12 0.2,0.84 -0.26,0.41 -0.26,0.08 -1.72,-0.57 -0.56,-0.57 -0.46,-0.89 0.2,-2.6 0.46,0.12 0.36,0.37 1.15,0.34 0.79,0.04 1.05,0.63 0.02,-0.51 -0.97,-0.73 -0.87,-0.03 -0.23,-0.46 0.27,-0.46 0.04,-0.66 -1.42,0.03 -0.4,0.13 -1.68,-0.6 -0.72,-0.81 -0.43,-1.93 -0.99,-2.58 0.34,-0.59 0.64,-0.13 -0.17,-0.81 1.13,-1.79 0.38,-1.61 -0.2,-1.18 -0.84,-1.89 -1.1,-1.16 -0.82,-0.24 -1.23,-0.05 -0.28,-0.26 0.03,-0.63 0.45,-0.94 0,-0.52 -0.71,-0.84 0.47,-2.12 -0.27,-0.92 -0.73,-0.79 0.25,-0.87 -0.75,-0.89 0.15,-0.43 0.69,-0.55 0.52,-0.05 0.67,-0.69 0.39,-1.14 -0.43,-1.42 -0.49,-0.42 -0.47,-1.36 0.13,-0.2 0.73,0.17 0,-0.76 0.6,-1.12 0.73,-0.73 0.23,-0.79 -0.2,-1.26 0.13,-0.89 0.37,-0.69 0.74,-0.69 2.22,-1.34 0.54,-0.59 0,-0.45 0.5,-1.09 0.7,-0.96 0.06,-1.05 -0.26,-0.61 0.07,-0.26 0.47,-0.17 1.38,-0.03 0.31,-0.44 0.47,-0.2 1.69,-0.03 1.21,-1.4 z m -13.97,-13.37 -0.17,0.06 -0.97,-0.74 0.92,-0.77 0.31,-1.05 0.48,-0.17 0.27,0.08 0.18,0.35 -0.18,1.49 -0.84,0.75 z m -53.61,0.22 -0.38,0.02 -0.26,-0.27 -0.33,-2.69 0.12,-0.88 0.18,-0.04 2.55,1.42 -0.61,1.34 -0.87,0.88 -0.4,0.22 z m 44.48,-14.45 -2.29,0.48 -1.46,-0.81 0.6,-0.84 1.25,-0.91 -0.63,-0.37 -1.79,-0.59 -0.98,-1.85 -0.23,-1.12 0.59,-0.71 0.74,-0.21 1.96,-2.05 1.21,0.28 0.11,0.84 0.22,0.49 2.2,2.17 0.16,1.79 -0.22,0.78 -1.44,2.63 z"
            title="Kalimantan Barat" id="ID-KB" />
        <path
            d="m 395.76571,84.717885 1.44,1.57 0.74,1.23 -0.02,0.43 -0.61,0.92 -2.71,2.45 -1,-0.42 -0.3,0.01 0.47,0.44 0.21,0.71 -0.09,2.17 0.15,0.6 0.8,0.91 2.3,1.59 1.45,1.46 4.93,2.900005 0.53,1.35 1.32,0.61 0.59,-0.09 0.6,0.18 3.1,2.66 0.35,0.92 0.76,0.89 1.17,0.47 0.27,-0.03 1.25,0.41 0.18,0.16 0.07,0.95 -0.56,0.8 -0.73,0.69 -2.42,1.67 -2.04,-0.77 -2.97,0.28 -2.79,-0.25 -3.08,-0.58 -1.63,-0.74 -0.7,-0.72 -0.67,-1.8 -0.67,-0.57 -0.81,-0.4 -0.24,0.09 -0.03,0.44 2.4,4.1 0.09,0.74 -0.23,0.37 -0.38,0.07 -0.34,-0.1 -0.75,-0.7 -0.58,-0.1 -1.59,0.51 -1.2,1.17 -0.36,0.77 -0.01,0.91 -1.71,3.53 -0.91,0.66 -0.81,1.73 -0.71,2.1 -0.24,1.23 0.44,1.23 0.47,0.42 0.15,0.69 -0.19,0.43 -0.63,0.67 -0.79,2.47 0.01,0.47 0.6,1.28 -0.45,3.12 2.57,-1.67 0.45,-0.14 0.21,0.09 0.07,0.27 -1.06,3.59 0.82,1.77 0.03,0.44 -0.14,0.22 -2.79,1.24 -2.14,-0.12 -0.7,-0.83 -0.42,0.26 -0.14,0.8 -1.95,2.35 -2.05,3.34 -0.38,0.33 -1.4,0.62 -1.84,0.33 -1.32,-2.97 0.31,-1.12 -0.08,-0.2 -0.24,0.06 -0.48,1.29 0.01,0.54 0.7,0.7 0.59,1.31 -0.55,2 -2.25,0.78 -1.5,1.05 -0.13,0.16 0.09,0.76 0.49,0.79 -0.11,0.48 -0.33,0.4 -2.37,0.94 -1.66,0.81 -1.43,0.9 0.12,0.31 0.53,0.27 0.7,-0.15 0.59,-0.47 0.82,-0.18 0.72,0.08 0.35,0.21 0.26,2.24 -0.04,2.27 -0.39,0.49 -1.09,0.38 -0.25,0.28 1.32,0.28 0.81,0 0.41,-0.4 0.34,0.74 -0.05,0.34 1.42,0.38 -0.11,1.39 -0.7,2.47 0,0 -1.33,-0.61 -1.1,-0.29 -2.7,-0.03 -1.28,-0.42 -2.73,-0.15 -0.39,-0.07 -0.53,-0.49 -0.54,0.49 -0.78,0.29 -0.1,0.31 -0.39,0.36 -0.54,0.17 -0.28,-0.53 0.03,-1.02 -0.71,-1.73 0.18,-1.52 0.36,-0.56 -0.15,-0.25 -0.6,-0.25 -0.5,0.14 -0.35,-0.28 -0.18,0.04 0.21,-0.6 -0.28,-0.32 0,-0.42 0.32,-0.71 0.07,-0.71 -0.14,-1.87 -0.36,-0.74 -0.49,-0.56 -0.11,-0.5 0.14,-0.31 -0.71,-0.57 -0.14,-0.32 0.14,-0.7 -0.28,-0.39 -0.61,-0.11 -0.6,0.25 -0.18,-0.35 0.07,-0.35 0.64,-0.57 0.43,-0.67 0.82,-0.7 0.32,0.07 -0.15,0.77 0.25,0.07 1.07,-1.27 0.25,-0.99 0,0 -0.01,0.01 0,0 0.23,-1.3 0.45,-0.53 0.91,-0.66 0.03,-0.26 -0.76,-0.66 -0.32,0.07 -0.34,0.33 -0.23,-0.14 -0.19,-0.69 -0.34,-0.14 -0.4,-0.44 -0.42,0.05 -0.21,-0.95 -0.23,-0.29 -1.32,-0.84 -0.6,-0.98 -0.79,-0.69 -1.68,-0.3 -0.41,-1.01 0.03,-1.19 -0.28,-1.9 -0.5,-0.43 -0.39,-1.03 -0.72,-0.74 -0.23,-0.06 0.21,-1.09 -0.37,-0.1 -0.19,-1.46 0.42,-0.08 0.04,-0.48 -0.29,-0.45 0.55,-0.95 0,-0.67 0.44,-0.26 0.42,-0.58 -0.36,-1.12 -2.42,1.17 -0.29,0.66 -0.47,0.01 -0.47,0.23 -0.76,0.66 -0.9,-0.24 -1.02,0.19 0,-0.53 -0.21,-0.47 0.08,-0.64 -0.45,-0.85 -0.1,-1.44 -0.24,-0.31 -0.37,0.02 -0.32,-0.35 -0.59,0.11 -0.29,-0.5 0.37,-0.88 -0.08,-0.42 0.43,-0.48 0.02,-0.35 0.39,-0.07 0.19,-0.2 0.53,-1.13 0.67,-0.43 0.27,0.06 0.11,0.21 0.31,-0.16 0.73,-0.05 0.17,0.02 0.34,0.48 0.15,-0.32 1.19,-0.83 0.2,-0.39 0.05,-0.71 -0.65,-0.57 -0.32,-0.65 -0.73,-0.86 -0.56,-1.16 -0.29,-1.61 -0.39,-0.7 -0.45,-0.37 -0.51,-0.14 -0.8,0.75 -0.04,0.23 0.3,0.48 -0.47,-0.12 -0.2,-0.42 -0.53,-0.33 -0.39,0.24 -0.5,-0.07 -0.82,0.6 -0.32,-0.14 -0.55,0.1 -0.49,0.65 -0.89,0.64 -0.79,0.03 0,0.63 -0.21,0.39 -1,0.03 -0.67,0.45 0.06,0.67 -0.21,0.06 -0.7,-0.12 -0.51,-0.43 -0.73,-0.18 -1.55,0.18 -0.42,-0.18 -0.1,-0.42 -0.63,-0.33 0,-0.21 0.33,-0.33 -0.33,-0.97 -0.73,-0.45 -0.3,0.12 -0.36,-0.09 -1.28,0.66 -0.54,-0.09 -0.7,0.24 -0.24,-0.06 -0.25,0.18 -0.42,-0.33 -0.49,0 0,0 -0.12,-0.24 0.18,-0.54 0.67,-0.27 0.18,-0.36 -0.06,-0.82 0.52,-0.63 0,-0.3 -0.58,-0.48 -0.27,-0.7 0.09,-0.27 0.52,-0.51 0.18,-0.51 -0.12,-0.43 -0.34,-0.3 0.09,-0.36 0.67,-0.15 0.3,-0.24 0.1,-0.66 0.51,-0.43 0.7,-0.06 0.3,0.15 0.55,-0.36 0.51,0.09 0.31,-0.3 0.21,-0.69 0,-0.69 0.33,-0.43 -0.21,-0.18 0.12,-1.72 0.82,-0.42 0,0 0.37,-0.15 0,0 0.24,-0.45 0.7,-0.09 1.58,-0.67 0.57,-0.54 2.58,1.51 0.4,-0.12 0.21,-0.43 0,0 0.79,0.42 0.25,0.46 0.62,0.51 1.59,0.46 0.78,0.87 0.2,1.02 0.21,0.26 0.82,-0.46 0.72,0.1 0.52,0.21 0.31,0.4 0.15,0.62 0.41,0.46 0.46,0.2 0.67,0.05 0.88,-0.97 1.34,0 0.56,0.26 0.77,0.1 0.83,-0.92 1.03,0.2 0.77,-0.92 0.51,-0.25 0.26,-1.59 0.41,-0.41 1.96,0.06 2.31,-0.87 2.32,-0.05 1.03,-0.87 0.56,-1.18 0.88,-0.770005 1.59,-2.14 1.29,-2.46 -0.31,-1.17 0.1,-0.67 0.47,-0.56 1.08,-0.56 0.25,-0.67 0.67,-0.41 0.16,-0.82 0.05,-2.2 0.2,-0.71 0.83,-1.38 0.36,-0.26 0.31,-1.33 0.25,-0.31 0.52,-0.05 0.56,0.57 0.78,0.3 0.3,0.31 0,0.41 0.62,0.31 0.72,-0.06 1.03,-0.3 1.75,-1.13 2.26,-0.77 2.01,-1.17 1.29,-0.05 1.44,0.3 1.59,-0.41 0.88,0 0.51,1.13 0.62,0.46 1.29,0.61 0.51,0.11 1.08,-0.26 0.46,0.31 1.14,1.38 1.38,0.51 0.37,0.05 1.28,-0.77 1.29,-0.15"
            title="Kalimantan Timur" id="ID-KI" />
        
        <path
            d="m 368.41571,189.53789 -0.17,0.2 -1.1,-1.78 0.65,-1.65 0.86,-1.09 0.23,-0.06 0.2,0.45 0,0.59 -0.67,3.34 z m -4.71,6.95 -0.56,0.16 -0.53,-0.05 -0.07,-0.21 0.06,-0.77 0.39,-1.28 -0.06,-1.79 -0.9,-1.25 -0.25,-0.81 0.02,-0.66 1.9,-5.56 2.45,-1.75 0.23,0.06 0.06,0.35 -0.36,2.29 0.27,2.65 0.82,3.98 -0.24,2.43 -2.51,1.88 -0.72,0.33 z m -6.34,-46.88 -0.25,0.99 -1.06,1.27 -0.25,-0.07 0.14,-0.78 -0.32,-0.07 -0.82,0.71 -0.43,0.67 -0.64,0.56 -0.07,0.35 0.18,0.35 0.6,-0.25 0.6,0.11 0.28,0.39 -0.14,0.71 0.14,0.32 0.71,0.56 -0.14,0.32 0.11,0.49 0.5,0.56 0.35,0.74 0.14,1.87 -0.07,0.71 -0.32,0.71 0,0.42 0.28,0.32 -0.21,0.6 0.18,-0.04 0.35,0.28 0.5,-0.14 0.6,0.25 0.14,0.25 -0.35,0.56 -0.18,1.52 0.71,1.73 -0.04,1.02 0.28,0.53 0.53,-0.18 0.39,-0.35 0.11,-0.32 0.78,-0.28 0.53,-0.49 0.53,0.49 0.39,0.07 2.73,0.14 1.28,0.42 2.7,0.04 1.1,0.28 1.33,0.62 0,0 -0.39,1.87 -0.52,0.66 -0.4,0.02 -0.16,-0.16 -0.12,-0.61 -0.76,-0.4 -1.98,0.4 -0.05,1.62 1.01,0.91 0.2,3.11 -0.33,0.85 -1.39,1.8 -0.51,0.26 -0.23,-0.05 -0.24,-0.35 -0.21,-1.2 -0.95,-1.65 -0.2,-0.19 -0.13,0.14 -0.38,1.72 0.19,0.89 0.98,1.4 0.57,0.5 0.1,0.98 -0.77,0.39 -1.25,1.71 -1.52,2.87 -0.38,2.45 -0.24,0.47 -0.38,0.22 -1.98,0.29 -1.15,1.1 -0.65,0.42 -3.24,1.38 -4.53,1.63 -6.2,2.59 -3.79,2.28 -1.24,0.16 -0.36,-0.39 -0.13,-0.57 -0.01,-7.32 -0.11,-0.84 -0.35,-0.7 -1.02,-1.34 -0.71,-0.66 -0.73,0.08 -1.54,-0.88 0,0 0,-0.91 0.78,-2.37 1.46,-2.29 0.39,-2.26 1.53,-3 0.99,-0.28 0.35,-0.28 0.18,-0.21 -0.14,-0.25 0.21,-0.39 0.36,0.11 0.85,-0.32 0.46,-0.6 0.32,-1.8 0.7,-0.55 0.5,-0.78 -0.04,-0.64 0.21,-0.32 0.57,0.04 5.9,-4.27 0.39,0.28 0.32,-0.04 0.21,-1.31 0.39,-0.81 -0.71,-1.55 0,-0.39 0.96,-0.74 0.25,-0.81 -0.67,-0.92 -0.11,-0.78 0.71,-2.22 0.89,-3.88 0.14,-0.18 1.85,-0.14 1.81,-0.67 0.39,-0.32 0.5,0.11 0.99,-0.78 0,0 0.39,-0.3 z"
            title="Kalimantan Selatan" id="ID-KS" />
        <path
            d="m 270.61571,178.54789 0.35,-0.93 0.38,-0.29 1.2,-0.41 0.78,-0.47 1.18,-0.21 0.62,-0.52 0.15,-0.57 1.45,-0.37 0.91,-0.45 0.52,-0.91 -0.16,-0.45 -0.34,0.02 -0.45,-0.28 0.33,-0.81 -0.53,-2.07 -0.09,-1.3 -0.52,-1.83 -0.68,-1.13 0.61,-0.72 -0.02,-0.29 0.19,-0.23 0.04,-0.23 -0.69,-1.29 0.7,-0.59 -0.07,-0.42 0.16,-0.39 -0.05,-0.15 -0.89,-0.13 -0.52,0.14 -0.34,-0.23 -0.15,-0.42 0.34,-0.43 0.04,-0.36 -0.32,-0.41 0.02,-0.64 0.11,-0.44 0.37,-0.34 0.15,-0.38 -0.12,-1.2 -0.22,-0.52 -0.29,-0.16 -0.42,0.18 -0.11,0.45 -0.18,0.13 -0.42,0.1 -0.26,-0.19 -0.18,-0.44 -0.44,-0.11 -0.04,-0.77 0.55,-0.38 0.28,-0.43 0.88,-0.21 0.44,-0.55 0.49,0.4 0.3,-0.3 0.48,-0.15 0.37,0.42 0.81,-0.22 -0.07,-0.45 -0.26,-0.39 0.82,-0.49 0.28,0.16 0.04,0.49 0.31,0.14 0.09,-0.66 -0.14,-0.79 0.38,0.14 0.13,-0.53 1.11,0.22 -0.05,-0.29 0.21,-0.04 0.42,-0.48 0.17,-0.59 0.63,-0.33 0.36,-0.75 0.3,0 0.12,-0.54 0.22,-0.18 1.11,-0.01 0.31,-0.26 1.2,-0.21 0.12,-0.3 -0.33,-0.28 0.26,-0.48 -0.32,-0.64 0.28,-0.54 0.48,-0.15 0.46,-0.48 -0.17,-0.69 0.3,-0.37 0.59,-0.04 0.93,-0.56 0.22,-0.29 0.76,-0.28 1.02,0.07 0.46,-0.26 0.16,-0.57 0.15,-0.07 0.68,0.15 -0.29,-0.76 0.14,-0.86 0.49,0.53 0.37,0.15 1.2,-0.34 0.07,-0.31 -0.31,-1.11 0.19,-0.18 1.08,0.11 0.77,0.31 0.38,0 0.1,-0.07 -0.24,-0.72 0.83,-1.14 0.54,0.03 0.35,0.28 0.64,1.21 0.41,0.48 0.36,-0.44 0.41,0.18 0.85,-0.31 0.49,-0.44 0.37,0.14 0.01,0.61 0.37,0.26 0.24,-0.23 0.08,-0.47 0.85,0.17 0.09,-0.19 0.92,-0.08 0,-0.21 0.6,-0.35 0.89,-0.03 0.25,-0.42 0.74,-0.03 0.08,-0.85 0.58,-0.15 0.57,0.17 0.7,-0.12 0.67,-0.63 1.44,-0.42 0.33,-0.31 1.33,0.14 0.33,-0.24 0.37,0 0.27,-0.51 0.39,-0.12 0.13,0.35 0.5,0.01 0.28,0.51 0.15,0.13 0.13,-0.08 0.16,-0.49 0.66,-0.8 -0.19,-0.78 -0.78,-0.71 0.28,-0.21 0.2,-0.6 0.53,-0.37 0.42,-0.6 0.86,-0.18 0.56,-0.51 0.27,-0.57 0.36,-0.07 0.08,-0.33 -0.34,-0.2 0.44,-0.26 0.35,-0.79 -0.07,-0.22 -0.37,-0.05 0.18,-0.77 0.26,-0.38 -0.35,-0.24 -0.2,-0.35 0.16,-1.35 -1.55,-0.81 -1.03,-1.01 0.03,-0.19 0.63,-0.38 0.74,-0.2 1.38,0.25 0.92,-0.55 0.53,-0.41 0.06,-0.23 0.96,-0.82 0.16,-0.31 1.32,-0.76 0.27,-1.09 0.68,-0.42 0.4,0 0.19,-0.42 0.37,-0.17 0.19,-0.43 0.36,-0.25 0.23,-0.71 0.51,-0.29 0,0 0.49,0 0.42,0.33 0.25,-0.18 0.24,0.06 0.7,-0.24 0.54,0.09 1.28,-0.66 0.36,0.09 0.3,-0.12 0.73,0.45 0.33,0.97 -0.33,0.33 0,0.21 0.63,0.33 0.1,0.42 0.42,0.18 1.55,-0.18 0.73,0.18 0.51,0.43 0.7,0.12 0.21,-0.06 -0.06,-0.67 0.67,-0.45 1,-0.03 0.21,-0.39 0,-0.63 0.79,-0.03 0.89,-0.64 0.49,-0.65 0.55,-0.1 0.32,0.14 0.82,-0.6 0.5,0.07 0.39,-0.24 0.53,0.33 0.2,0.42 0.47,0.12 -0.3,-0.48 0.04,-0.23 0.8,-0.75 0.51,0.14 0.45,0.37 0.39,0.7 0.29,1.61 0.56,1.16 0.73,0.86 0.32,0.65 0.65,0.57 -0.05,0.71 -0.2,0.39 -1.19,0.83 -0.15,0.32 -0.34,-0.48 -0.17,-0.02 -0.73,0.05 -0.31,0.16 -0.11,-0.21 -0.27,-0.06 -0.67,0.43 -0.53,1.13 -0.19,0.2 -0.39,0.07 -0.02,0.35 -0.43,0.48 0.08,0.42 -0.37,0.88 0.29,0.5 0.59,-0.11 0.32,0.35 0.37,-0.02 0.24,0.31 0.1,1.44 0.45,0.85 -0.08,0.64 0.21,0.47 0,0.53 1.02,-0.19 0.9,0.24 0.76,-0.66 0.47,-0.23 0.47,-0.01 0.29,-0.66 2.42,-1.17 0.36,1.12 -0.42,0.58 -0.44,0.26 0,0.67 -0.55,0.95 0.29,0.45 -0.04,0.48 -0.42,0.08 0.19,1.46 0.37,0.1 -0.21,1.09 0.23,0.06 0.72,0.74 0.39,1.03 0.5,0.43 0.28,1.9 -0.03,1.19 0.41,1.01 1.68,0.3 0.79,0.69 0.6,0.98 1.32,0.84 0.23,0.29 0.21,0.95 0.42,-0.05 0.4,0.44 0.34,0.14 0.19,0.69 0.23,0.14 0.34,-0.33 0.32,-0.07 0.76,0.66 -0.03,0.26 -0.91,0.66 -0.45,0.53 -0.23,1.3 0,0 -0.35,0.31 0,0 -0.99,0.78 -0.5,-0.11 -0.39,0.32 -1.81,0.67 -1.85,0.14 -0.14,0.18 -0.89,3.88 -0.71,2.22 0.11,0.78 0.67,0.92 -0.25,0.81 -0.96,0.74 0,0.39 0.71,1.55 -0.39,0.81 -0.21,1.31 -0.32,0.03 -0.39,-0.28 -5.89,4.27 -0.57,-0.03 -0.22,0.32 0.04,0.63 -0.5,0.78 -0.7,0.55 -0.32,1.8 -0.46,0.6 -0.85,0.31 -0.36,-0.1 -0.21,0.39 0.14,0.24 -0.18,0.22 -0.35,0.28 -1,0.28 -1.52,3 -0.39,2.26 -1.46,2.3 -0.78,2.36 0,0.91 0,0 -2.42,-1.15 -1.86,-0.5 -1.22,0.09 -3.59,1.72 -1.85,0.28 -0.8,-0.03 -1.07,-0.65 0.49,-1.56 0.07,-1.58 -0.26,-0.91 -0.36,-0.53 -2.26,0.14 -0.45,0.49 -0.17,0.6 -1.27,0.29 -2.09,-1.33 -3.12,-3.26 -0.52,-0.07 -1.47,1.6 -0.11,0.57 0.44,0.57 -0.3,1 -3.31,2.03 -1.18,0.83 -0.7,0.72 -1.75,0.54 -0.32,-0.03 -1.98,-1.57 -1.93,-0.67 -1.04,-0.02 -1.45,0.56 -3.69,3.52 -0.61,0.34 -0.41,0.06 -1.45,-0.6 0.65,-2.28 -0.47,-3.66 0,-0.82 0.28,-1.08 -0.03,-0.72 -1.36,-2.43 -0.4,-1.6 -0.48,-0.07 0.07,0.8 -0.57,0.84 0.43,0.35 -0.1,0.45 -0.94,0.17 -0.3,0.33 -1.24,0.77 -0.17,-0.47 -0.91,-0.8 -0.74,-0.57 -0.43,-0.07 -1.48,0 -3.05,1.75 -1.22,0.53 -0.97,0.3 -1.48,0.2 -2.18,-1.54 z"
            title="Kalimantan Tengah" id="ID-KT" />
        <path
            d="m 390.44571,70.617885 -0.56,0.43 -1.29,-1.02 -0.47,-1.24 0.03,-0.41 0.16,-0.22 1.46,-0.12 0.82,0.25 0.15,0.32 -0.3,2.01 z m -4.73,-4.79 2.2,1.3 -0.01,0.2 -0.54,0.47 -1.69,-0.74 -1.93,-0.1 -0.64,-0.31 -0.4,-0.54 0.08,-0.43 0.91,-0.38 2.02,0.53 z m 5.69,-7.4 -0.78,0.29 -1.19,-0.87 -0.18,-0.89 0.07,-0.22 0.78,-0.85 0.49,0.05 1.25,1.01 0.1,0.47 -0.54,1.01 z m 2.78,-3.31 0.43,0.19 0.42,2.01 -0.56,0.44 -0.51,0.08 -0.61,-0.31 -3.52,-2.82 0.06,-0.26 0.9,-0.74 0.51,-0.03 1,0.35 0.19,0.38 0.58,0.42 1.11,0.29 z m -37.96,1.44 0.04,-0.93 0.33,-0.67 0.37,0.03 0.79,-0.91 0.4,0.06 0.14,0.33 0.41,-0.11 0.13,-0.57 0.72,-0.6 -0.14,-0.42 0.12,-1.04 0.53,-0.19 0.33,0.57 1.51,0.3 0.27,0.2 0.11,0.49 0.65,0.5 0.2,-0.13 0.39,-0.76 0.85,-0.33 0.13,-0.64 0.15,-0.11 1.41,0.21 0.3,0.18 1.52,-0.35 1.17,0.97 0.2,0.64 0.59,-0.14 0.23,-0.54 0.37,0.16 0.47,-0.08 -0.05,-0.62 0.54,-0.67 0.41,0.45 0.38,0.12 0.25,0.61 0.77,-0.24 0.53,0.16 0.31,-0.1 0.28,-0.16 0.26,-0.5 0.41,0.25 0.38,0.48 0.26,-0.11 0.49,0.28 0.69,-0.2 0.53,-0.41 0.73,0.18 0.29,0.23 0.65,0.06 0.28,0.3 0.34,-0.39 1.11,0.15 0.65,-0.17 0.59,0.11 0.64,-0.16 0.09,-0.19 0.53,-0.21 3.02,2.15 0.4,0.86 0.24,0.15 1.21,0.34 0.89,-0.26 0.24,0.17 0,0 -0.81,0.5 -0.91,0.28 -1.56,-0.45 -0.17,0.19 0,0.56 0.39,0.32 0.96,0.23 2.64,2.22 -1.75,0.26 1.66,0.95 1.56,0.17 1.27,1.34 0.04,0.26 -0.25,0.64 1.06,0.32 -0.08,0.25 -1.2,1.12 -1.07,0.21 -3.17,0.23 -2.67,-0.38 -1.8,0.3 -0.48,0.29 -0.44,0.65 0.03,0.41 0.56,0.87 1.48,0.93 1.26,-0.15 0.8,0.21 0.02,0.84 -0.28,0.52 1.76,0.92 -0.17,0.28 -1.26,0.17 -0.86,0.34 -0.29,0.46 -0.97,0.17 -0.17,0.34 0.54,0.32 2.01,0.35 2.71,1.18 1.22,2.08 -0.28,1.61 -0.01,1.26 1.02,0.18 0.8,0.49 0.21,0.33 0.14,1.34 0.23,0.72 2.78,2.74 0,0 -0.69,0.59 -1.29,0.15 -1.29,0.77 -0.36,-0.05 -1.39,-0.51 -1.13,-1.38 -0.46,-0.31 -1.08,0.26 -0.51,-0.1 -1.29,-0.61 -0.62,-0.46 -0.51,-1.13 -0.87,0 -1.6,0.41 -1.44,-0.31 -1.29,0.05 -2.01,1.18 -2.26,0.77 -1.75,1.13 -1.03,0.31 -0.72,0.05 -0.62,-0.31 0,-0.41 -0.29,-0.31 -0.77,-0.31 -0.57,-0.56 -0.51,0.05 -0.26,0.31 -0.31,1.33 -0.36,0.26 -0.82,1.38 -0.21,0.72 -0.05,2.2 -0.15,0.82 -0.67,0.41 -0.26,0.66 -1.08,0.56 -0.46,0.56 -0.1,0.67 0.31,1.18 -1.29,2.45 -1.6,2.15 -0.87,0.770005 -0.57,1.18 -1.03,0.87 -2.32,0.05 -2.31,0.87 -1.96,-0.05 -0.41,0.41 -0.26,1.58 -0.51,0.26 -0.77,0.92 -1.03,-0.2 -0.82,0.92 -0.77,-0.1 -0.57,-0.26 -1.34,0 -0.87,0.97 -0.67,-0.05 -0.46,-0.2 -0.41,-0.46 -0.15,-0.61 -0.31,-0.41 -0.51,-0.2 -0.72,-0.1 -0.82,0.46 -0.21,-0.26 -0.21,-1.02 -0.77,-0.87 -1.59,-0.46 -0.62,-0.51 -0.26,-0.46 -0.79,-0.42 0,0 0.49,-0.81 -0.18,-0.3 0.12,-0.75 0.8,-0.470005 0.52,-0.92 0.38,-0.31 0.13,-0.99 -0.11,-1.19 -0.13,-0.13 0.49,-0.66 -0.07,-0.27 0.56,-0.16 0.54,0.25 0.45,-0.64 0.67,-0.11 0.36,-0.34 -0.4,-0.81 0.05,-0.23 0.69,-0.52 -0.02,-0.22 -0.51,-0.25 -0.76,0.34 -0.2,-0.45 0.16,-0.96 -0.35,-0.19 -0.16,-0.29 -0.02,-0.82 0.34,-1.31 1.84,-0.2 0.78,-0.49 0.04,-0.23 -0.33,-0.43 0.31,-0.63 0.67,0.11 0.43,-0.23 0.51,-0.59 0.67,0 0.2,-0.59 0.45,-0.41 0.58,-0.18 0.78,0.02 0.6,-0.5 0.07,-0.31 -0.47,-0.34 -0.11,-0.34 -0.67,-0.79 -0.99,0.31 -0.31,-0.47 0.31,-0.38 0.09,-0.41 0,-0.49 -0.23,-0.14 0,-0.38 0.6,-0.52 0,-0.43 0.18,-0.34 -0.18,-0.27 -0.51,-0.13 -0.04,-0.18 0.96,-0.77 0.25,-1.06 1.59,-1.06 0.34,-0.83 0.61,0.65 0.04,0.41 1.23,-0.09 0.81,-0.77 1.03,-0.14 0.18,-0.34 0,-0.84 0.13,-0.25 0.81,-0.67 0,-0.2 -0.71,-0.52 -0.05,-0.18 0.42,-2.81 0.63,-1.26 0.34,0.02 0.4,0.63 0.4,-0.58 -0.58,-1.01 -0.13,-1.1 -0.38,-0.47 -0.16,-0.86 0.05,-1.55 0.14,-0.71 0.52,-1.04 0.04,-0.56 -0.05,-0.18 -0.78,-0.56 -0.13,-0.31 0.85,-0.23 0.45,-0.41 0.67,-2.08 0,0 0.01,-0.19 z"
            title="Kalimantan Utara" id="ID-KU" />
    </g>
</svg>
