<?xml version="1.0" encoding="UTF-8"?>
<svg
   xmlns:mapsvg="http://mapsvg.com"
   xmlns:dc="http://purl.org/dc/elements/1.1/"
   xmlns:rdf="http://www.w3.org/1999/02/22-rdf-syntax-ns#"
   xmlns:svg="http://www.w3.org/2000/svg"
   xmlns="http://www.w3.org/2000/svg"
   mapsvg:geoViewBox="95.220250 7.356505 141.009728 -10.946766"
   width="300"
   height="300">
    <g fill="#90953b" transform="translate(-1570 -200) scale(3)">
        <path
            d="m 586.81571,269.62789 -1.56,-0.07 -1.47,-0.72 -0.16,-0.33 1.05,-0.38 1.36,0.07 1.03,0.51 0.06,0.52 -0.31,0.4 z m -20.27,-2.88 1.84,0.65 1.74,0.15 0.87,-0.15 0.44,0.27 0.03,0.25 -1.58,1.67 -0.19,0.05 -3.38,-1.12 -0.48,-0.3 -0.68,-1.31 1.39,-0.16 z m 51.21,4.36 -0.67,0.05 -0.01,-0.23 1.59,-1.72 1.23,-0.67 0.59,-0.99 0.9,-0.99 0.33,-0.09 2.52,0.81 -0.63,0.62 -3.16,1.22 -1.08,0.77 -0.15,0.44 -1.15,0.74 -0.31,0.04 z m -17.94,-5.06 -1.26,-0.3 -1.91,-2.34 -0.14,-0.39 0.15,-0.73 0.1,-0.38 0.28,-0.31 1.63,-0.22 2.05,0.55 0.39,0.32 0.34,1.44 -1.63,2.36 z m -52.72,-6.75 0.81,0.01 0.43,1.34 -1.41,0.06 -1.68,0.51 -0.9,0.64 -0.97,1.19 -1.47,0.78 -2.43,-0.28 -2.73,-0.54 -1,0.02 -2.3,0.48 -2.23,1.79 -0.3,0.06 -0.18,-0.25 0.7,-2.67 2.76,-3.36 3.69,1.09 2.65,-0.46 1.24,-1.07 1.29,-0.6 2.3,-0.58 0.21,0.15 0.08,0.67 1.44,1.02 z m 11.67,-0.35 -0.26,0.13 -0.34,-0.07 -0.24,-0.41 0.37,-2 0.36,-0.23 1.69,0.55 0.06,0.26 -0.13,0.7 -1.51,1.07 z m 63.64,-2.43 -1.34,-0.42 -0.23,-0.53 0.31,-0.48 0.52,-0.19 2.33,-0.24 0.21,0.14 -0.74,0.9 -1.06,0.82 z m 11.54,-5.24 -0.73,0.31 -0.38,-0.07 -0.61,0.5 0.67,3.27 0,0.71 -0.85,2.56 -1,1.3 -2.96,2.18 -0.99,1.6 -0.06,1.26 -0.2,0.34 -0.46,0.24 -2.88,-0.28 -0.48,-0.24 -0.42,-2.3 1.82,-3.14 -0.23,-0.51 1.05,-2.85 1.2,-1 0.47,-0.18 0.91,-0.86 1.23,-1.49 1.36,-2.4 0.76,-0.41 1.3,-0.14 0.98,0.49 0.5,1.11 z m 3.24,-1.76 0.9,1.34 0.15,0.64 -0.27,0.52 -0.18,0.05 -0.84,-0.58 -0.41,-0.89 -0.99,-0.18 -1.17,0.26 -0.51,-0.1 -0.14,-0.22 0.1,-0.48 0.29,-0.2 3.07,-0.16 z m -56.61,1.75 -0.49,0.17 -1.51,-0.94 -0.23,-0.41 0.06,-0.21 0.32,-0.36 1.22,-0.74 1.39,0.76 0.08,0.2 -0.4,0.99 -0.44,0.54 z m 108.06,-14.83 -0.3,0.33 -0.63,1.45 -0.1,0.66 -0.63,1.22 -0.26,-0.23 -0.46,0.07 -0.07,0.4 0.17,0.46 0.3,0.17 0,0.4 -0.33,0 -0.33,0.2 -0.13,0.69 -0.66,1.02 -0.53,0.5 -0.3,0 -0.56,-0.43 0.07,-0.46 0.5,-0.46 0.33,-0.79 0.07,-0.83 0.4,-0.59 -0.3,0.03 -0.23,-0.3 -0.33,-0.89 0.1,-0.5 0.66,-0.46 0.73,-0.26 -0.03,-0.73 0.17,-0.23 0.69,-0.33 0.3,-0.53 0.99,-0.79 0.53,0.03 0.3,0.3 -0.13,0.88 z m -36.79,-7.18 -0.61,0.25 -0.82,-0.26 -0.44,-0.44 0.05,-1.24 -0.23,-2.15 -0.48,-1.37 0.11,-0.32 1.12,-0.32 1.81,3.45 0,1.13 -0.51,1.27 z m 33.85,-4.39 0.1,1.02 0.4,1.09 -0.63,0.13 0,0.3 1.32,0.66 -0.03,0.33 -0.17,0.26 -0.4,0.1 -0.76,-0.33 -0.03,0.5 0.4,0.26 0.07,0.23 -0.07,0.43 -0.26,0.13 -0.36,-0.07 -0.63,-0.5 -0.17,0.13 0,0.3 0.93,0.66 0.2,0.36 0.56,0.33 0.36,0.59 -0.36,2.31 -0.3,0.92 -0.66,1.12 -1.26,0.66 -0.5,-0.1 -0.23,0.2 0.36,0.99 0.53,0.33 -0.07,0.5 -1.09,0.99 -0.89,-0.26 -0.33,0.17 -0.23,0.56 0.1,0.33 0.5,-0.17 -0.03,0.5 -0.63,1.02 -0.69,0.46 -1.32,1.52 -0.03,0.66 -0.5,0.63 -2.05,0.89 -0.3,0.33 -0.46,-0.05 -0.36,-0.89 -0.33,-0.3 -0.69,0 -0.76,-1.32 0,-0.36 0.23,-0.2 0.36,-1.52 0.23,-3.11 0.3,-0.76 -0.03,-0.43 0.3,-0.99 -0.13,-1.75 -0.43,-1.52 0.66,-0.07 -0.43,-1.19 0.23,-0.56 0,-0.5 0.43,-0.36 0.17,0.17 0,0.33 0.26,0.03 0.5,-0.3 0.5,0 0.1,0.66 0.2,0.17 0.33,-0.1 0.46,-0.46 0.53,-1.32 0,-0.2 -0.5,-0.3 0.03,-0.3 0.17,-0.3 0.53,-0.4 0.07,-0.33 0.4,-0.33 0.26,-0.63 -0.07,-0.23 -0.3,-0.13 -0.5,0.3 -0.73,-0.59 -0.83,-0.1 -0.5,-0.53 0.07,-0.33 0.63,-0.69 0.99,0.63 0.36,0.03 1.29,-0.99 0.63,-1.65 0.76,-0.5 0.07,-0.63 -0.2,-0.86 0.17,-0.46 0.89,-1.22 0.63,-0.17 0.36,0.2 0.96,1.65 0.5,0.43 0.03,0.33 0.43,0.66 0.03,1.12 0.83,1.06 -0.07,0.5 -0.41,0.19 z m -30.73,3.18 -1.83,2.38 -0.17,-0.05 -0.01,-0.31 1.61,-5 0.34,-0.6 0.59,-0.56 2.22,-5.58 0.41,-0.17 0.57,0.08 0.33,0.7 -1.35,4.39 -0.53,0.65 -0.85,0.5 -1.17,1.6 -0.28,1.01 0.12,0.96 z m -76.67,-38.78 -2.08,0.41 -0.13,-0.13 0.26,-0.58 -0.01,-0.98 0.53,-0.39 1.21,0.12 0.92,0.91 -0.02,0.2 -0.68,0.44 z m 1.74,-1.65 0.82,0.29 0.36,-0.65 0.26,0.03 0.29,0.78 0,1.19 -1.44,0.22 -0.22,-0.09 -1.2,-1.68 -0.03,-0.31 0.22,-0.21 0.26,-0.02 0.68,0.45 z m -4.99,1.8 -0.64,1.16 -1,0.84 -2.11,0.61 -0.38,-0.04 1.81,-1.71 0.22,-0.45 -0.28,-0.12 -3.66,2.28 -0.75,-0.05 -0.42,-0.53 -0.03,-0.84 0.9,-0.99 1.08,-0.69 2.71,-0.52 0.77,-0.95 0.71,-0.29 0.55,0.13 0.57,0.33 0.15,0.24 -0.2,1.59 z m -12.15,-4.48 -1.94,-0.56 -0.69,-0.68 0.75,-0.6 0.78,0.1 0.94,0.88 0.46,0.66 -0.3,0.2 z m 2.43,-1.91 -1.74,-0.01 -0.6,-0.5 1.21,-1.1 0.83,-0.13 0.58,0.46 -0.04,1.13 -0.24,0.15 z m -13.48,-1.88 1.87,1.18 0.21,0.97 -1.03,-0.05 -0.22,0.36 0.2,0.74 0.75,0.68 0.53,-0.2 0.31,-0.33 2,0.66 -0.41,4.13 -0.34,0.63 -0.54,0.16 -0.66,-0.18 -0.72,0.18 -1.55,0.64 -2.58,1.38 -3,0.93 -3.2,-1.14 -2.18,-1.01 -2.42,-1.63 -3.43,-3.25 -0.47,-1.3 -0.14,-2.87 0.27,-0.56 1.23,-0.84 0.41,0.09 0.43,0.6 0.57,0.47 0.61,0.03 0.55,-0.75 0.68,-0.38 2.29,-0.6 5.55,-0.22 1.55,0.26 2.88,1.22 z m 48.47,-4.08 3.87,1.54 1.22,0.06 4.28,-0.38 0.66,0.17 3.68,2.61 0.71,1.81 0,1.37 0.27,0.91 0.45,0.52 1.21,-0.04 0.83,0.2 0.64,0.64 0.82,2.39 -0.07,0.62 -0.6,0.85 -0.25,2.54 0.15,0.81 -3.7,-1.45 -1.01,-1.06 -2.76,-1.61 -4.57,-1.54 -2.47,-1.26 -0.56,-0.74 -0.03,-0.85 -0.79,-0.63 -0.4,-0.13 -4.09,-0.31 -2.35,-0.33 -0.29,0.32 0.12,0.54 0.73,0.86 0.19,0.56 -0.25,0.57 -0.47,0.12 -3.66,-0.91 -1.05,-0.08 -1.63,-0.62 -0.75,-0.46 -2.88,0.12 -0.32,-0.26 0.16,-0.39 0.69,-0.62 0.04,-0.67 -0.69,-0.49 -0.88,-0.13 -1.92,1.21 -1.47,1.37 -0.25,0.47 -1.02,0.86 -2,0.44 -0.47,-0.02 -0.65,-0.27 -0.49,-0.42 -1.76,-2.61 -1.47,-0.99 -0.62,-2.36 -0.69,0.02 -0.78,0.79 -0.62,1.51 -0.33,2.23 -0.46,0.64 -0.43,0.11 -0.93,1.67 -0.33,1.39 -0.16,-0.25 -0.25,-1.04 0.52,-1.15 0.12,-1.25 -0.87,-1.35 -0.45,-1.37 2.21,-1.72 3.26,-3.96 3.97,0.1 2.83,-0.13 4.95,0.18 2.13,-0.48 0.88,-0.71 0.36,0.03 0.32,0.19 0.13,0.35 -0.03,1.35 0.53,0.61 0.55,0.32 1.38,-0.29 2.31,-1.47 0.33,-0.27 0.18,-0.7 0.48,-0.21 2.13,-0.15 1.78,0.54 2.45,1.02 0.45,0.6 z"
            title="Maluku" id="ID-MA" />
        <path
            d="m 535.85571,169.61789 -0.51,0.08 -0.53,-0.3 -0.47,-0.59 -0.35,-0.72 -0.25,-1.65 -0.89,-1.29 -0.62,-2.48 0.44,-1.09 0.25,-0.4 0.36,-0.23 0.59,0.08 0.79,0.69 0.02,0.43 -0.53,1.47 -0.03,0.61 2.04,4.47 -0.31,0.92 z m -10.97,-11.5 3.77,0.32 1.31,-0.17 0.54,-0.32 3.94,-0.12 6.23,0.53 -0.25,0.38 -1.41,0.6 -4.7,0.53 -8.89,0.55 -2.06,-0.97 -0.13,-0.22 -0.01,-0.83 0.63,-0.73 0.59,-0.09 0.18,0.38 0.26,0.16 z m -8.31,-1.81 0.97,0.34 1.85,-0.5 2.98,0.71 0.48,0.98 0.03,1.67 -0.38,-0.13 -2.39,-0.08 -1.8,0.27 -0.45,0.23 -0.14,0.58 -0.38,0.12 -2.51,-0.82 -1.18,0.27 -1.64,0.97 -2.04,0.57 -0.87,0.18 -2.05,0.06 -1.33,-2.3 -0.02,-1.07 0.7,-2.15 0.48,-0.55 2.34,-0.46 1.81,-0.01 5.54,1.12 z m 50.59,-4.71 3.99,2.32 0.53,0.45 0.29,0.51 0.03,0.43 -0.36,0.76 -0.84,0.46 -0.53,0.06 -6.1,-0.48 -1.14,0.66 -1.66,0.25 -1.94,-0.89 -0.65,-0.53 -0.27,-0.44 0.28,-1.04 -0.07,-0.5 0.22,-1.05 0.37,-0.73 0.3,-0.34 0.32,0.25 2.91,-1.8 1.61,0.31 2.71,1.34 z m -4.58,-2.91 -2.06,0.19 -0.67,-0.45 0,-0.18 0.86,-0.79 0.7,-0.24 1.8,0.72 -0.63,0.75 z m -5.13,-7.96 -0.7,0.24 -2.02,-0.46 -0.13,-0.19 0.02,-0.49 0.58,-1.84 0.24,-0.24 0.42,-0.1 0.45,0.1 0.65,1.22 0.49,1.76 z m 4.38,-8.13 1.94,2.51 -0.31,0.95 -0.7,0.67 -0.38,0.81 0.06,0.48 0.73,1.14 0.54,0.31 0.63,-0.38 1.23,-0.18 1.1,0.49 0.77,1.02 -0.06,0.51 -1.34,1.1 -1.06,0.29 -1.36,-0.58 -1.21,-1.47 -2.12,0.9 -0.44,-0.15 -0.34,-0.6 -0.61,-2.67 -1.72,-1.82 -0.23,-1.01 0.53,-1.97 0.87,-0.22 0.72,0.64 1.19,-0.26 0.88,-0.71 0.69,0.2 z m -6.72,3.57 -1.15,-0.07 -0.16,-0.44 -0.02,-3.52 0.65,-0.47 1.6,-0.17 0.4,0.46 0.38,1.67 -0.46,2 -1.24,0.54 z m 11.9,-40.140005 0.47,0.17 0.33,-0.09 0.42,0.12 0.96,0.87 0.27,0.5 0.43,3.340005 -0.82,2.98 -1.41,2.47 -1.27,1.05 -3.16,2.16 -0.39,0.59 0.05,1.02 0.42,0.71 1.68,1.19 0.69,0.29 0.86,-0.13 1.26,-0.95 0.2,-2.27 0.79,-1.33 1.11,-0.85 0.88,-0.11 0.78,0.14 0.57,-0.29 0.49,-1.03 -0.15,-0.47 -0.33,-0.27 -0.43,-0.05 -0.21,-0.82 1,-1.59 3.22,-2.23 1.17,-0.49 1.84,-0.51 1.36,-0.200005 1.02,0.03 0.39,0.07999 0.26,0.24 -0.47,7.82 -0.58,0.67 -3.78,2.21 -2.54,0.74 -1.49,1.48 -0.01,0.44 0.42,0.85 1.08,0.93 0.87,0.5 4.13,1.49 0.75,-0.03 0.75,0.16 0.32,2.48 -0.17,0.88 0.66,0.48 1.87,0.5 0.78,0.64 0.53,1.02 -0.89,-0.66 -0.67,-0.25 -4.69,-1.1 -1.57,-1.32 -1.61,-0.01 -1.38,0.2 -1.14,-0.3 -0.59,-0.34 -0.34,-0.49 -1.5,-0.26 -2.01,-0.18 -0.63,0.38 -0.26,0.33 -0.47,2.33 0.48,0.38 0.3,2.37 -0.69,1.13 0.04,1.35 2.61,6.84 0.99,1.85 0.76,1.01 1.31,2.23 3.26,3.24 -2.07,-0.11 -0.51,-0.17 -0.38,-0.36 0.13,-0.35 -1.73,-1.32 -1.49,-0.61 -0.54,-0.44 -1.36,-3 -1.44,-2.4 -2.42,-1.36 -0.95,-1.46 0.64,-4.83 -0.22,-2.24 -0.55,-2.46 -0.65,-0.36 -0.83,-0.88 -0.76,-2.32 -0.07,-0.95 0.39,-1.96 0.73,-0.76 0.54,-1.08 -0.08,-0.52 -1.85,-0.55 -0.2,-0.3 0.26,-0.98 -0.47,-1.64 -1.4,0.26 -0.13,-0.39 0.11,-2.59 2.16,-3.91 0.13,-1 -0.15,-0.38 0.75,-3.76 2.14,-3.19 3.77,-4.02 0.66,-0.56 1.85,-0.01 -0.24,1.12 -1.61,2.44 -0.42,0.5 -0.47,0.15 -0.69,0.55 -0.09,1.56 0.33,0.38 z m 10.85,-4.18 -1.92,0.09 -1.91,0.47 -0.54,-1.42 -0.32,-2.51 0.1,-1.04 1.03,-1.92 0.95,-1.18 1.5,-1.46 2.22,-1.05 0.25,0.05 1.88,2.57 0.15,0.79 -1.28,3.75 -0.89,1.6 -0.98,1.12 -0.24,0.14 z"
            title="Maluku Utara" id="ID-MU" />
    </g>
</svg>
