<?xml version="1.0" encoding="UTF-8"?>
<svg
   xmlns:mapsvg="http://mapsvg.com"
   xmlns:dc="http://purl.org/dc/elements/1.1/"
   xmlns:rdf="http://www.w3.org/1999/02/22-rdf-syntax-ns#"
   xmlns:svg="http://www.w3.org/2000/svg"
   xmlns="http://www.w3.org/2000/svg"
   mapsvg:geoViewBox="95.220250 7.356505 141.009728 -10.946766"
   width="320"
   height="280">
    <g fill="#90953b" transform="translate(-510 -90) scale(1.5)">
        <path
            d="m 468.81571,109.57789 0.59,0.2 2.41,-0.05 1.67,0.18 3.41,0.99 0.24,0.35 2.96,1.83 1.11,-0.69 0.85,-1.22 2.55,-0.37 0,0 0.21,0.82 0.54,0.39 0.86,0.23 0.7,0.69 -0.04,0.47 0.27,0.85 0.62,0.54 1.21,0.89 2.03,0.35 0.54,0.58 0.31,0.85 -0.15,1.08 0.07,1.01 -0.81,1.43 -0.28,0.98 0,0 -2.14,0.03 -1.5,-0.4 -1.28,-1.18 -0.81,-1.2 -1.03,-0.89 -0.51,0.38 -1.38,0.14 -8.43,-0.31 -1.82,0 -3.06,0.31 -2.37,-0.05 -0.51,0.13 -0.6,0.52 -1.63,0.32 -1.75,0.06 -1.48,-1.67 -2.93,-0.32 -0.24,0.12 -0.2,0.68 -0.29,0.25 -2.77,0.32 0,0 0.28,-0.5 -0.17,-1.47 -0.69,-0.03 -1.07,-0.34 -0.5,-0.78 -0.57,-0.31 -0.26,-0.43 0.31,-0.17 0.06,-1.07 0.34,-0.34 1.06,-0.38 0.97,0.38 0.52,-0.1 0.02,-0.96 0.35,-0.41 0.89,0.51 1.33,0.05 0.48,-0.41 1.45,-0.01 2.07,-0.95 1.11,-0.3 0.79,-0.61 0.85,-0.14 0.49,0.8 0.49,0.52 0.42,0.17 0.3,-0.27 0.13,-0.65 0.37,0 0.52,-0.6 0.26,0.03 z"
            title="Gorontalo" id="ID-GO" />

        <path
            d="m 519.80571,102.64789 -0.89,1.24 -0.77,2.53 -1.01,1.83 -1.54,2.12 -1.32,0.57 -1.52,1.14 -1.2,1.17 -1.52,2.55 -0.41,1.12 -1.93,2.33 -2.09,1.07 -1.29,0.31 -1.01,0.01 -4.19,0.65 -2.95,0.7 -2.24,0.26 -1.02,-0.31 -2.22,0.02 0,0 0.27,-0.98 0.82,-1.43 -0.08,-1.01 0.16,-1.08 -0.31,-0.85 -0.54,-0.58 -2.02,-0.35 -1.21,-0.89 -0.62,-0.54 -0.27,-0.85 0.04,-0.46 -0.7,-0.7 -0.86,-0.23 -0.54,-0.39 -0.2,-0.81 0,0 2.33,-0.11 2.29,0.48 3,1 0.31,0.04 0.59,-0.34 3.84,0.91 1.58,-0.06 1.24,-0.73 5.33,-2.36 0.42,-0.53 0.83,-2.15 0.99,-0.4 2.68,0.17 0.23,-0.13 0.42,-0.58 -0.01,-0.61 -0.54,-0.32 -0.63,0.03 -0.26,-0.45 -0.03,-0.36 0.46,-0.78 1.13,-0.82 0.98,0.36 0.71,-0.05 2.02,-1.14 0.21,-0.54 -0.54,-1.05 0.05,-0.290005 2.62,-2.05 1.07,-0.09 1.71,0.49 0.68,0.55 -0.17,0.54 0.09,0.48 1.44,1.220005 -0.32,0.85 -0.6,0.35 -0.65,0.06 -0.32,0.25 z m 4.74,-20.790005 -0.21,0.07 -0.47,-0.2 -0.38,-1.48 0.45,-1.18 0.53,-0.24 0.55,0.33 0.12,0.26 -0.08,0.34 -0.75,0.85 0.03,0.45 0.38,0.56 -0.17,0.24 z m 3.02,-16.98 -0.22,0.56 1.01,1.29 0.17,-0.11 0.42,0.26 0.12,1.26 -0.64,0.96 -0.2,-0.14 -0.17,0.08 -0.09,0.62 -0.16,-0.11 0.02,-0.31 -0.33,-0.56 -0.5,0.02 -0.22,-0.29 -0.41,-0.12 -0.06,-0.29 -0.28,0.05 -0.3,-0.7 -0.03,-0.47 0.47,-1.04 -0.08,-0.16 -0.27,0 -0.11,-0.39 0.33,-0.12 -0.08,-0.14 -0.34,0.08 -1.17,-0.73 -0.22,-0.36 0.09,-0.92 0.73,-0.26 1.03,0.19 1.49,1.85 z m 19.42,-3.15 -0.29,0.05 -0.21,-0.3 -1.27,-2.8 -0.13,-1.03 0.27,-0.02 0.41,0.3 1.39,1.87 0.06,0.46 -0.23,1.47 z m 0.85,-3.22 -1.08,-0.15 -0.16,-1.28 0.72,-0.61 0.98,-1.85 0,-0.41 -0.21,-0.19 -1,-0.24 -0.17,-0.16 -0.29,-0.96 -0.04,-0.58 0.54,-2.47 0.35,-0.63 1.27,0.23 0.78,0.7 0.96,3.62 -0.78,1.17 -1.28,3.23 -0.59,0.58 z"
            title="Sulawesi Utara" id="ID-SA" />
        <path
            d="m 448.92571,174.57789 1.63,0.42 0.58,0.26 0.45,0.54 0.39,0.14 0.7,-0.57 0.72,-0.21 0.4,0.08 0.59,1.35 -0.31,0.58 0,0.33 0.17,0.3 1.09,0.55 1.2,0.16 0.44,-0.24 1.11,-1.14 1.51,-0.58 0,0 2.65,1.08 1.98,0.56 0.64,-0.33 0.74,0.14 1.04,-0.05 0.44,0.23 0.51,0.68 1.08,0.21 0.16,0.33 -0.11,0.88 0.43,0.18 0.44,0.61 0.55,-0.1 0.42,1.04 0.53,-0.03 0.17,0.15 -0.11,0.21 0.13,0.43 0,0 -0.88,1.22 0.19,0.77 1.32,0.4 0.35,0.36 0.51,0.2 0.71,1.16 -0.15,0.41 -0.36,0.15 -1.82,-1.82 -0.61,-0.36 -0.75,-0.01 0.72,1.29 -0.42,1.26 -1.18,0.47 -0.03,0.39 0.83,1.32 1.66,1.2 2.21,1.22 -0.05,0.23 0.56,0.71 0.1,0.5 0.46,0.3 1.57,-0.14 0.61,0.1 0.1,0.4 -0.5,0.36 -0.16,0.97 0.66,0.34 0.11,0.36 -0.33,0.43 0.57,1.3 0.17,0.13 2.45,-0.18 -0.11,-0.42 -0.84,-0.61 -0.19,-0.42 0.21,-0.11 0.63,0.04 0.69,0.49 0.68,1.57 0.17,1.07 -0.13,2.76 -1.2,0.96 -0.79,-0.49 -1.68,-1.47 -0.3,0.05 -0.16,0.15 0.21,0.41 1.16,1.01 0.36,0.55 0.08,0.43 -0.28,0.34 -0.36,0.15 -0.3,-0.41 -0.56,0.26 -0.66,-1.32 -0.76,-0.5 -1.32,0.76 -0.76,0.25 -0.82,-0.1 -2.74,0.76 -0.75,-0.14 -1.33,0.74 -0.93,0.17 -0.62,1.16 -0.35,1.41 0.33,1.08 0.86,0.79 0.02,0.32 -1.25,1.3 -1.68,0.04 -1.53,-0.7 -2.06,-0.22 -0.56,0.27 -0.41,-0.1 -0.2,-0.41 -0.46,-0.3 -1.57,-0.61 -0.51,-0.5 -0.2,-0.51 -0.56,-0.56 -0.2,-0.45 0.25,-1.82 0.17,-0.14 0.58,-2.14 -0.09,-1.42 0.41,-1.16 0.51,-0.25 0.66,-1.42 -0.06,-1.41 -0.25,-0.56 -1.32,-0.51 -2.39,-0.35 -0.45,-0.35 -1.12,-1.62 -0.46,-0.2 -0.2,-0.36 0,-0.5 -0.51,-0.1 -0.61,0.1 -1.02,-1.36 -3.13,-2.72 -0.62,-0.79 -0.43,-0.2 -0.23,-0.68 -0.03,-0.82 0.36,-0.92 1.61,-2.19 0.7,-0.35 0.61,-1.54 -0.05,-2.32 0.15,-0.55 0.35,-0.45 0.02,-1.18 -0.19,-0.08 0.13,-0.38 -0.27,0.15 -0.24,-0.18 -0.12,-0.79 -0.13,0 -0.14,0.44 -0.57,-0.13 0.13,0.29 0.21,0.05 -0.04,0.23 -0.31,-0.03 -0.09,-0.71 -0.29,-0.21 -0.02,-0.21 0.47,0.15 0.47,-0.74 z"
            title="Sulawesi Tenggara" id="ID-SG" />
        <path
            d="m 493.70571,219.54789 -1.17,-0.09 -0.65,-1.23 -0.08,-0.8 1.31,0.15 0.49,0.4 0.17,0.36 -0.07,1.21 z m -27.91,1.73 -1,0.06 -1.68,-2.02 -0.98,-1.56 0.07,-0.81 0.85,-2.25 0.85,-0.57 1.03,0.21 0.2,0.17 1.36,2.6 -0.11,3.33 -0.17,0.61 -0.42,0.23 z m 12.09,-14.43 0.6,3.99 0.21,0.38 -0.08,1.01 -2.23,1.93 -0.8,1.74 0.07,0.47 0.47,0.37 0.44,1.02 -0.24,1.32 -0.71,1.21 -0.94,0.26 -1.63,-0.58 -2.47,-0.2 -0.47,-0.18 -0.19,-0.93 0.84,-3.01 0.26,-0.61 0.87,-0.52 0.15,-0.34 -0.13,-1.46 -1.01,-2.32 0.74,-1.61 0.38,-0.21 1.03,-0.05 1.14,-0.32 1.43,-1.12 1.63,-0.79 0.64,0.55 z m 8.55,1.04 0.04,2.14 -0.2,0.85 -0.61,-0.66 0.15,-1.02 -0.73,-1.1 -0.4,0.21 0.16,2.07 -0.36,0.25 -0.61,-0.25 -0.15,-0.25 0.05,-0.41 0.36,-0.51 -0.05,-0.35 -0.14,-0.15 -0.42,0.22 -0.54,1.34 -0.43,1.92 -0.18,2.77 0.73,0.62 0.37,-0.08 2.93,2.31 0.03,0.37 -1.24,1.59 -1.61,0.7 -0.34,-0.09 -0.57,-0.45 -1.67,0.76 -0.45,0.43 -0.23,0.69 0.68,0.05 0.23,0.33 -0.21,0.58 -1.27,2.01 -0.44,0.27 -2.56,-0.12 -0.9,-1.51 -0.61,-1.57 2.87,-4.36 0.8,-2.15 1.25,-5.5 -0.16,-2.8 0.35,-1.3 0.87,-1.75 2.04,-1.44 0.46,-0.13 0.36,0.13 -0.3,0.52 0.24,0.76 1.01,0.56 1,1.4 0.4,2.1 z m -2.3,-11.67 0.36,0.06 1.48,-0.35 0.72,0.69 0.35,0.72 -0.09,0.72 -1.57,2.06 -0.25,0.13 -1.36,-0.08 -0.88,-0.89 -0.88,-1.2 -0.18,-0.47 -0.02,-0.73 0.94,-1.04 0.66,-0.14 0.72,0.52 z m 2.16,-48.96 0.48,0.99 -0.7,1.14 0.85,1.58 0.44,-0.07 0.41,-0.99 0.48,-0.37 0.18,-0.48 0.59,-0.66 0.81,-0.37 2.51,1.18 -0.44,2.76 -0.67,0.4 -0.59,0.85 -0.52,0.04 -1.18,-0.55 -0.26,-0.59 -0.67,-0.66 -0.52,0.22 -0.26,0.48 -0.18,0.59 -0.11,1.69 -0.18,0.29 -0.33,0 -0.48,0.33 -0.52,-0.26 -0.44,0 -0.33,-0.15 -0.07,-0.4 0.18,-0.26 0.37,-0.04 0.81,-0.92 -0.3,-1.07 -0.26,-2.17 -0.19,-0.33 -0.41,0.26 -1.18,1.32 -0.26,1.07 -0.74,0.92 -0.04,0.29 -1.18,1.07 -0.41,0.18 -0.55,-0.11 -0.7,-1.62 -0.55,-0.22 -0.18,-0.33 0,-0.85 0.48,-1.84 1,-1.21 0.26,-0.51 0.33,-0.4 0.44,-0.04 0.74,0.44 0.37,-0.26 1.96,-0.59 0.63,0.7 0.44,-0.88 0.3,0 0.34,0.41 z m -33.95,-41.37 0.42,0.06 2.03,-0.31 0.94,-0.82 0.3,0 0.32,0.22 0,0.42 -0.2,0.29 -0.59,0.02 -0.24,0.15 0.21,0.11 0.17,0.7 0.59,0.84 0.92,0.96 0.57,0.26 0.66,0.17 5.74,-0.78 0.19,0.11 0.58,1.19 0.32,0.13 0.35,-0.08 0.87,-0.72 0.48,0.02 1.83,0.74 0,0 -2.26,0.85 -0.26,-0.03 -0.52,0.6 -0.38,0 -0.13,0.65 -0.3,0.27 -0.42,-0.17 -0.49,-0.52 -0.48,-0.8 -0.85,0.14 -0.79,0.61 -1.11,0.29 -2.07,0.96 -1.45,0 -0.48,0.42 -1.33,-0.05 -0.89,-0.51 -0.35,0.41 -0.02,0.96 -0.52,0.1 -0.97,-0.38 -1.06,0.38 -0.35,0.34 -0.06,1.06 -0.32,0.17 0.26,0.43 0.58,0.32 0.49,0.78 1.07,0.34 0.69,0.03 0.17,1.46 -0.29,0.5 0,0 -1.37,-0.41 -1.73,0.44 -0.62,0.82 -2,-0.24 -1.53,0.35 -0.59,-0.19 -0.42,-0.45 -1.92,-0.58 -0.81,-0.52 -3.39,-0.19 -1.14,0.65 -1.68,0.58 -1.7,1.71 -2.12,3.1 0.35,0.33 -0.54,0.83 -0.2,2.11 -0.59,0.63 -0.49,-0.07 0.07,1.34 -0.46,1 -0.05,1.36 0.37,0.56 0.05,0.85 0.61,1.46 -0.27,0.85 -0.13,2.21 0.29,0.72 1.21,1.8 2.38,2.64 0.19,0.46 0.48,0.28 0.36,-0.03 0.76,-0.52 0.33,-0.07 0.58,0.43 0.23,0.56 1.1,0.11 1.44,2.34 -0.45,1.51 0.07,0.59 0.28,0.46 0.52,0.22 1.03,2.16 0.51,0.06 0.82,-0.43 0.25,-0.56 0.51,-0.22 0.68,0.01 0,0.72 0.2,0.34 0.51,0.18 1.18,-0.16 2.43,0.3 0.43,-0.29 0.95,-1.24 1.08,-2.17 2.22,-2.78 0.39,-0.12 0.29,-0.47 0.86,-0.67 0.66,-1.19 0.62,-0.35 1.15,-0.29 0.21,-0.93 0.5,-0.15 0.34,-0.02 0.33,0.29 -0.33,1.48 0.25,0.37 0.25,0 1.13,0.65 2.18,0.25 0.91,0.39 1.32,-0.88 0.75,-0.14 0.69,0.28 0.49,0.02 0.51,-0.51 0.39,-1.97 1.5,-0.58 0.97,0.43 2.68,-1 3.73,0.53 1.7,-0.01 2.61,-0.26 0.7,-0.36 -0.07,-0.26 -1.44,-0.51 -1.99,-0.2 -0.47,-0.3 0.03,-0.27 1.48,-0.63 1.52,-0.21 1.82,0.03 0.5,-0.15 0.35,-0.65 0.23,-0.01 2.66,0.11 1.54,0.59 1.69,0.91 0.75,1.92 -0.14,1.24 -0.79,0.92 -0.34,1.94 -0.5,0.68 -0.32,0.21 -1.15,-0.18 -0.39,-0.2 -1.26,-1.46 -0.33,-0.9 -1.46,-0.34 -4.31,0.63 -0.4,0.54 -0.11,0.72 -0.49,0.92 -1.3,1.42 -1,1.73 -1.18,0.94 -2.07,2.22 -1.12,1.42 -3.72,2.08 -2.62,0.34 -1.01,0.66 -2,0.39 -0.66,0.5 -0.97,2.39 -0.85,0.86 -0.48,0.26 -1.08,0.19 -1.11,-0.06 -0.33,-0.6 -1.27,-1.3 -1.95,-0.84 -0.51,0.26 -0.17,1 0.87,2.52 0.38,-0.3 1.08,-0.06 0.91,1 1.53,2.23 0.85,0.34 0.91,-0.16 0.78,0.23 2.11,2.17 2.27,3.87 0.78,2.54 2.03,1.65 3.05,2.14 0.02,0.68 -0.72,1.11 -0.02,0.37 1.91,1.71 0.25,0.15 0.55,-0.25 0.93,0.68 -1.09,1.29 -0.98,-0.27 -0.33,0.32 0,0 -0.12,-0.43 0.11,-0.2 -0.17,-0.15 -0.53,0.02 -0.42,-1.04 -0.55,0.1 -0.43,-0.61 -0.43,-0.18 0.11,-0.88 -0.16,-0.32 -1.08,-0.21 -0.51,-0.69 -0.43,-0.22 -1.05,0.05 -0.74,-0.14 -0.65,0.33 -1.98,-0.55 -2.65,-1.08 0,0 0.25,-0.76 0.41,-0.23 0.77,-1.49 0.27,-0.27 0.62,-0.17 -1.26,-2.55 -0.64,-0.5 -0.45,0.06 -0.67,-1 -0.83,-0.06 -0.62,-0.21 -1.27,-0.98 -0.68,-0.12 -0.86,0.07 -0.96,-0.58 -1.72,-0.29 -4.7,-2 -0.77,-0.1 -0.23,-0.21 -1.01,-0.15 -0.46,0.13 -0.08,0.33 -0.84,0 -0.76,-0.33 -1.3,-0.67 -1.13,-1.08 -1.47,-2.04 -0.17,-0.46 -1.27,-1.45 -0.29,0.12 0,0.42 -0.8,2.46 -1.34,-0.58 -1.8,0 -0.84,-0.38 -0.13,-0.58 -1.47,0.13 -0.33,-0.17 -0.92,0.92 -0.59,0.13 -0.34,0.33 -0.4,-0.54 0,0 -0.24,-0.89 0.36,-0.21 -0.15,-0.34 -0.05,-2.75 -0.31,0.11 -0.56,-0.24 -0.62,0.09 -0.4,-0.27 0.11,-0.54 0.33,-0.4 -0.44,-0.77 -0.39,-0.12 0.08,-0.63 -1.04,-0.98 -0.28,-0.85 0.55,-0.56 0.08,-0.27 -0.57,-0.55 -0.76,-0.44 -0.36,0 -0.57,0.46 -0.63,0.08 -0.38,-0.57 -0.35,0.06 -0.32,-0.21 -0.49,-0.63 0,-0.26 0.65,-0.08 0.57,-0.33 -0.11,-0.25 -0.55,0.2 0.19,-0.38 1.55,-0.19 0.19,-0.38 -0.05,-0.55 0.55,-1.21 -0.03,-0.5 -0.38,0.08 -0.09,-0.25 -0.15,-1.39 -0.26,-0.9 0,-0.94 0.22,-0.56 -0.11,-0.9 0,0 1.92,-1.56 0.15,-0.99 0.61,-0.58 0.31,-0.02 0.9,1.93 0.21,0.97 0.57,0.9 0.21,0.03 0.29,-0.53 0.07,-0.52 -0.3,-1.82 -0.82,-1.07 -0.84,-2.81 0.14,-2.57 0.16,0 0.15,-0.75 0.64,-1.65 -0.33,-1.19 -1.36,0.42 -0.32,-0.15 -0.71,-0.49 -0.98,-1.82 1.1,0.19 -0.08,-0.58 0.86,0.44 0.51,0.41 -0.05,0.41 0.51,0.34 0.2,0.53 0.71,0.17 0.68,-0.78 0.39,-1 -0.04,-1.63 -0.33,-0.61 -1.34,-1.38 -0.12,-0.37 0.42,-0.27 0.82,0.29 0.91,0.03 0.07,-0.26 -0.29,-0.97 -0.59,-0.71 -0.03,-0.23 0.52,-0.81 0.04,-0.65 0.44,-0.68 0.65,-0.42 0.95,-0.11 0.55,-0.4 0.14,-0.78 -0.36,-1.65 0.02,-0.51 0.19,-0.35 0.74,-0.62 0.75,0 1.75,-0.97 0.28,-0.5 0.04,-1.51 0.23,-0.72 0.62,-0.45 0.6,-0.01 0.32,0.21 0.08,0.5 -0.22,1.14 0.13,0.4 1.39,0.93 2.68,0.49 0.47,-1.17 0.13,-0.77 0.63,-1.02 0.7,-0.73 1.12,-0.39 0.82,-0.87 0.5,-2.27 -0.18,-1.4 0.2,-0.77 2.11,-0.32 2.48,0.31 0.84,0.34 1.74,1.1 z"
            title="Sulawesi Tengah" id="ID-ST" />
        <path
            d="m 446.96571,252.57789 1.11,-0.05 1.17,0.37 -0.33,0.47 -0.77,0.12 -3.17,-0.52 -0.43,-0.28 -0.01,-0.24 0.41,-0.27 0.97,0.31 1.05,0.09 z m -4.27,-4.15 1.12,0.55 0.46,-0.28 0.15,0.47 -0.25,0.81 -1.67,0.22 -0.61,-0.43 -0.22,-0.64 0.15,-1.19 0.42,0.11 0.45,0.38 z m -3.12,-10.68 -0.42,0.95 -0.34,-1.8 0.2,-1.27 -0.46,-2.48 -0.08,-4.31 0.39,-2.09 0.19,-0.34 0.23,-0.03 0.14,0.3 -0.02,0.65 0.46,0.83 0.7,2.68 -0.45,3.92 -0.54,2.99 z m -11.04,-76.1 0.4,0.54 0.34,-0.33 0.59,-0.13 0.92,-0.92 0.33,0.17 1.47,-0.13 0.13,0.58 0.84,0.38 1.8,0 1.34,0.58 0.8,-2.46 0,-0.42 0.29,-0.12 1.27,1.45 0.17,0.46 1.47,2.04 1.13,1.08 1.3,0.67 0.76,0.33 0.84,0 0.08,-0.33 0.46,-0.13 1.01,0.15 0.23,0.21 0.77,0.1 4.7,2 1.72,0.29 0.96,0.58 0.86,-0.07 0.68,0.12 1.27,0.98 0.62,0.21 0.83,0.06 0.67,1 0.45,-0.06 0.64,0.5 1.26,2.55 -0.62,0.17 -0.27,0.27 -0.77,1.49 -0.41,0.23 -0.25,0.76 0,0 -1.52,0.58 -1.1,1.14 -0.44,0.24 -1.2,-0.15 -1.09,-0.55 -0.17,-0.31 0,-0.33 0.31,-0.57 -0.6,-1.35 -0.39,-0.08 -0.72,0.2 -0.7,0.57 -0.39,-0.14 -0.45,-0.53 -0.58,-0.27 -1.64,-0.42 0,0 0.42,-0.46 -0.77,-1.11 -3.68,-0.97 -0.69,-0.05 -1.64,0.61 -1.83,1.09 -3.43,2.49 -2.96,1.84 1.14,3 1.33,0.97 0.58,0.24 0.52,0.88 -0.15,0.85 -0.08,3.5 0.57,1.33 0.32,2.23 -0.13,0.54 -1.16,1.86 -0.34,1.01 -0.18,3.35 0.77,1.06 -0.51,3.74 0.67,1.83 0.46,3.2 -0.54,1.82 -0.9,0.9 -0.52,0.32 -0.01,2.37 -0.73,2.79 2.04,3.47 1.37,4.59 -0.13,0.2 -0.83,-0.28 -1.01,-1.6 -0.36,-0.17 -1.87,0.52 -1.33,0.68 -0.83,0.24 -2.91,-0.58 -1.3,1.09 -0.25,0.75 -0.92,0.61 -1.93,-0.05 -0.31,-0.22 -0.24,-0.53 0.05,-0.28 -0.33,-0.38 -2.76,-0.96 -1.9,-2.82 -0.05,-1.1 0.46,-2.67 0.38,-0.8 1.2,-1.56 0.87,-2.18 0.08,-0.77 -0.38,-0.95 -0.19,-1.4 1.79,-2.95 0.49,-4.11 0.05,-2.35 -0.49,-3.72 -1.06,-1.71 -1.53,-2.99 0.55,-1.42 0.62,-0.86 -0.46,-1.39 0,0 -0.34,-1.87 -0.5,-1.17 -0.08,-0.92 -0.71,-0.67 0,-0.42 0.38,-0.29 0.38,-0.04 0.21,0.29 0.88,-0.25 0.25,-0.21 0.21,-0.58 0.67,-0.25 1.05,0.04 0.04,-0.38 -0.59,-0.67 -0.5,-1.17 0.29,-0.7 -0.1,-0.62 -0.26,-0.33 0.2,-0.88 0,-1.02 0.32,-0.75 0.75,0.29 1.05,-0.42 0.5,0 0.71,-0.79 0.21,-0.73 1.25,-0.92 0.23,-0.59 -0.1,-0.79 -0.2,-0.36 -0.56,-0.33 -0.92,-0.16 -0.16,-0.2 -0.26,-0.52 0,-0.85 -0.3,-0.33 -1.52,-0.73 0.04,-1.3 1.78,-1.28 0.46,-0.43 0.13,-0.36 0.72,-0.1 0.13,-0.33 -0.27,-0.89 1.02,-0.48 z"
            title="Sulawesi Selatan" id="ID-SN" />
        <path
            d="m 423.30571,141.43789 0.11,0.9 -0.22,0.56 0.01,0.95 0.25,0.89 0.16,1.39 0.09,0.25 0.38,-0.08 0.03,0.51 -0.55,1.21 0.05,0.55 -0.19,0.38 -1.55,0.19 -0.19,0.37 0.55,-0.19 0.11,0.24 -0.57,0.33 -0.65,0.08 0.01,0.26 0.49,0.63 0.32,0.21 0.35,-0.06 0.38,0.56 0.64,-0.07 0.57,-0.46 0.36,0 0.76,0.44 0.57,0.55 -0.08,0.27 -0.55,0.56 0.29,0.85 1.04,0.98 -0.08,0.63 0.39,0.13 0.44,0.76 -0.33,0.4 -0.11,0.54 0.4,0.27 0.62,-0.09 0.55,0.24 0.31,-0.12 0.05,2.76 0.14,0.34 -0.36,0.21 0.24,0.89 0,0 -1.02,0.46 0.26,0.9 -0.13,0.33 -0.72,0.09 -0.13,0.36 -0.47,0.43 -1.77,1.28 -0.04,1.3 1.52,0.73 0.29,0.32 0,0.85 0.27,0.53 0.16,0.19 0.92,0.17 0.56,0.33 0.2,0.36 0.1,0.78 -0.23,0.59 -1.25,0.92 -0.21,0.73 -0.72,0.79 -0.5,0 -1.05,0.42 -0.75,-0.29 -0.33,0.75 0,1.02 -0.2,0.88 0.27,0.33 0.1,0.62 -0.3,0.7 0.5,1.17 0.59,0.66 -0.05,0.38 -1.05,-0.04 -0.67,0.25 -0.21,0.58 -0.25,0.21 -0.88,0.25 -0.21,-0.29 -0.38,0.04 -0.37,0.29 0,0.42 0.71,0.67 0.08,0.92 0.51,1.17 0.34,1.87 0,0 -2.39,-0.92 -1.01,-0.14 -1.26,1.1 -0.5,0.09 -0.98,-0.15 -1.43,0.29 -1.53,0.68 -0.46,0.59 -0.19,-0.09 -1.4,-3.2 -0.13,-0.77 -0.04,-4.6 0.26,-0.25 0.67,-2.89 -0.09,-0.38 -0.3,-0.29 -0.95,-0.17 -0.71,0.33 -0.19,-1.53 0.38,-1.65 0.36,-0.7 0.37,-0.23 0.7,0.56 0.71,0 1.74,-1.15 2.39,-2.36 0,-1 -0.36,-1.06 0.04,-0.81 0.24,-1.24 1.18,-3.31 0.45,-0.61 0.46,-0.25 0.73,-0.24 0.58,0.27 0.32,-0.64 0.27,-1.64 -0.14,-0.3 -0.51,-0.28 -0.12,-0.24 -0.47,-1.72 0.02,-0.51 0.43,-1.07 -0.46,-2.2 -0.1,-1.27 0.03,-0.25 0.66,-0.49 -0.2,-0.95 -0.23,-0.32 0.04,-0.29 0.74,-1.49 1.75,-1.51 0.44,-1.99 0.53,-1.37 0.28,-0.54 z"
            title="Sulawesi Barat" id="ID-SR" />
    </g>
</svg>
